<svg xmlns="http://www.w3.org/2000/svg" data-name="Layer 1" viewBox="0 0 512 512" id="actor"><path fill="#343c4a" d="M454.95 511.999a10 10 0 0 0 10-10V376.366a71.154 71.154 0 0 0-50.693-68.081l-93.212-28.105a30.495 30.495 0 0 1-21.726-29.178v-63.63h-86.638v63.63a30.495 30.495 0 0 1-21.726 29.178l-93.212 28.105a71.154 71.154 0 0 0-50.693 68.08V502a10 10 0 0 0 10 10Z"></path><path fill="#fff" d="M324.154 281.117c-.763-.19-1.844-.49-3.11-.937a32.62 32.62 0 0 1-15.7-11.009 30.936 30.936 0 0 1-6.025-18.169v-63.63h-86.638v63.63a30.931 30.931 0 0 1-6.025 18.169c-5.54 7.365-13.05 10.075-16.069 11.12a35.038 35.038 0 0 1-2.746.826A348.34 348.34 0 0 0 256 490.18a327.197 327.197 0 0 0 39.156-65.272c25.988-57.682 29.618-110.797 28.998-143.79Z"></path><path fill="#ededed" d="M242 310.446h28v186.566h-28z"></path><path fill="#f9beac" d="M256 296.127c3.682.59 28.685 4.21 44.367-12.195a39.25 39.25 0 0 0 7.652-11.66 31.559 31.559 0 0 1-8.082-15.175 30.286 30.286 0 0 1-.618-6.095v-48.671l-15.005-14.958h-56.628l-15.005 14.958v48.671a30.398 30.398 0 0 1-8.7 21.27 41.075 41.075 0 0 0 8.014 11.556c15.88 16.006 39.99 12.882 44.005 12.3Z"></path><path fill="#596381" d="m223.766 511.999-67.523-128.686a5.07 5.07 0 0 1 1.373-6.354l15.484-12.091a8 8 0 0 0 1.995-10.323l-17.904-30.833a8 8 0 0 1 .952-9.346l29.698-33.25a494.587 494.587 0 0 0 70.532 210.296L255.179 512h-31.413Z"></path><path fill="#596381" d="M246.721 511.999c16.284-27.987 36.25-67.573 50.912-111.296a582.84 582.84 0 0 0 26.521-119.586c8.443 12.972 23.255 31.747 30.018 40.183a7.995 7.995 0 0 1 .553 9.223L343.12 349.21a8 8 0 0 0 .14 8.658l11.83 17.748a8 8 0 0 1 .428 8.154L288.26 512h-41.539Z"></path><path fill="#243047" d="M389.832 511.999a3.5 3.5 0 0 1-3.5-3.5v-73.174a3.5 3.5 0 0 1 7 0V508.5a3.5 3.5 0 0 1-3.5 3.5zm-267.664 0a3.5 3.5 0 0 1-3.5-3.5v-73.174a3.5 3.5 0 0 1 7 0V508.5a3.5 3.5 0 0 1-3.5 3.5z"></path><path fill="#e58a7b" d="M299.937 257.097a30.286 30.286 0 0 1-.618-6.095v-48.671l-15.006-14.958h-56.627l-15.005 14.958v48.671a30.274 30.274 0 0 1-.454 5.182 97.555 97.555 0 0 0 15.616 11.262A70.012 70.012 0 0 0 263 276.91a70.014 70.014 0 0 0 35.157-9.464 97.418 97.418 0 0 0 4.464-2.77 29.577 29.577 0 0 1-2.684-7.579Z"></path><path fill="#f9beac" d="M291.157 253.446A70.013 70.013 0 0 1 256 262.91a70.013 70.013 0 0 1-35.157-9.464 97.206 97.206 0 0 1-48.457-84.043V76.15h167.228v93.254a97.206 97.206 0 0 1-48.457 84.043Z"></path><path fill="#e58a7b" d="M255.971 222.63q-.452 0-.903-.01a36.713 36.713 0 0 1-13.054-2.752 3.5 3.5 0 0 1 2.657-6.476 29.783 29.783 0 0 0 22.66 0 3.5 3.5 0 1 1 2.654 6.476 37.207 37.207 0 0 1-14.014 2.763zm12.515-53.195v4.846A12.486 12.486 0 0 1 256 186.766a12.486 12.486 0 0 1-12.486-12.485v-4.846a3 3 0 0 1 3-3h18.972a3 3 0 0 1 3 3z"></path><path fill="#343c4a" d="M306.438 136.442a3.482 3.482 0 0 1-1.326-.262 30.23 30.23 0 0 0-12.085-2.23 29.729 29.729 0 0 0-10.573 2.23 3.5 3.5 0 0 1-2.658-6.477 36.781 36.781 0 0 1 27.972 0 3.5 3.5 0 0 1-1.33 6.74zm-12.655 19.189a3.5 3.5 0 0 1-3.5-3.5v-8.055a3.5 3.5 0 0 1 7 0v8.055a3.5 3.5 0 0 1-3.5 3.5zm-88.221-19.189a3.5 3.5 0 0 1-1.33-6.739 36.78 36.78 0 0 1 27.97 0 3.5 3.5 0 1 1-2.655 6.477 30.155 30.155 0 0 0-12.085-2.23 29.724 29.724 0 0 0-10.573 2.23 3.501 3.501 0 0 1-1.327.262zm12.655 19.189a3.5 3.5 0 0 1-3.5-3.5v-8.055a3.5 3.5 0 0 1 7 0v8.055a3.5 3.5 0 0 1-3.5 3.5z"></path><path fill="#343c4a" d="M314.614 25.974a98.483 98.483 0 0 0 .497-9.886A12.609 12.609 0 0 0 302.482 3.5h-87.844a42.186 42.186 0 0 0-42.252 42.12v102.407h4.197a10.49 10.49 0 0 0 10.49-10.49v-17.784a6 6 0 0 1 6-6h24.07a97.725 97.725 0 0 0 58.5-19.322 3.952 3.952 0 0 1 4.774.054 91.454 91.454 0 0 0 39.63 17.755 5.978 5.978 0 0 1 4.88 5.89v19.407a10.49 10.49 0 0 0 10.49 10.49h4.197V64.42a42.113 42.113 0 0 0-25-38.446Z"></path><path fill="#e58a7b" d="M339.614 160.437v-43.063h6.01a18.526 18.526 0 0 1 18.527 18.526 24.537 24.537 0 0 1-24.537 24.537ZM172.387 160.436A24.537 24.537 0 0 1 147.85 135.9a18.526 18.526 0 0 1 18.526-18.526h6.01v43.063Z"></path><path fill="#f96263" d="M304.624 313.944a6.916 6.916 0 0 1-8.553 6.708 171.729 171.729 0 0 1-13.633-3.864 172.49 172.49 0 0 1-33.062-14.886v.43a112.626 112.626 0 0 1 47.236-19.542 6.902 6.902 0 0 1 8.012 6.821Z"></path><path fill="#f96263" d="M207.376 313.944a6.916 6.916 0 0 0 8.553 6.708 171.729 171.729 0 0 0 13.633-3.864 172.49 172.49 0 0 0 33.062-14.886v.43a112.626 112.626 0 0 0-47.236-19.542 6.902 6.902 0 0 0-8.012 6.821Z"></path><rect width="20.355" height="27.14" x="245.823" y="288.547" fill="#d34342" rx="3.877"></rect><circle cx="256" cy="329.726" r="3.5" fill="#343c4a"></circle><circle cx="256" cy="357.726" r="3.5" fill="#343c4a"></circle><circle cx="256" cy="385.726" r="3.5" fill="#343c4a"></circle><circle cx="256" cy="413.726" r="3.5" fill="#343c4a"></circle><circle cx="256" cy="441.726" r="3.5" fill="#343c4a"></circle></svg>