<svg xmlns="http://www.w3.org/2000/svg" viewBox="0 0 512 512" id="avatar"><g data-name="Layer 16"><path fill="#ef644f" d="M117.75 256.918h279.951v161.177H117.75z"></path><path fill="#f4dcc6" d="M194.962 156.646h122.069a80.669 80.669 0 0 1 80.669 80.669v61.035A141.7 141.7 0 0 1 256 440.053a141.7 141.7 0 0 1-141.7-141.7v-61.038a80.669 80.669 0 0 1 80.662-80.669Z"></path><path fill="#c99673" d="M256 429.744a141.7 141.7 0 0 1-141.7-141.7v10.306A141.7 141.7 0 0 0 256 440.053a141.7 141.7 0 0 0 141.7-141.7v-10.312A141.7 141.7 0 0 1 256 429.744zm61.032-255.587H194.963a80.668 80.668 0 0 0-80.67 80.668v2.093H397.7v-2.093a80.668 80.668 0 0 0-80.668-80.668z"></path><circle cx="180.911" cy="274.712" r="45.967" fill="#ecf0f1"></circle><path fill="#bdc3c7" d="M180.911 228.745a45.966 45.966 0 0 0-45.966 45.967h91.933a45.967 45.967 0 0 0-45.967-45.967Z"></path><ellipse cx="180.911" cy="274.712" fill="#a36841" rx="31.319" ry="35.305"></ellipse><ellipse cx="180.911" cy="274.712" fill="#63433b" rx="15.785" ry="17.794"></ellipse><circle cx="160.523" cy="274.712" r="10.25" fill="#ecf0f1"></circle><path fill="#c99673" d="m260.9 338.826 15.816-17.974a6.524 6.524 0 0 0-4.9-10.833h-31.633a6.524 6.524 0 0 0-4.9 10.833l15.817 17.974a6.524 6.524 0 0 0 9.8 0Z"></path><ellipse cx="256" cy="409.744" fill="#c99673" rx="11.791" ry="8.352"></ellipse><path fill="#fd805d" d="M256 36.548A181.461 181.461 0 0 0 74.539 218.009v202.365l24.42 11.958v-23.916l15.334 23.916h13.137V256.607l9.51-17.2h40.245l9.466-46.807 8.257 46.807h60.34l9.467-46.807 8.256 46.807h60.341l9.465-46.807 8.258 46.807h27.129l6.406 11.586v181.339h13.137l15.334-23.916v23.916l24.42-11.958V218.009A181.461 181.461 0 0 0 256 36.548Z"></path><path fill="#ab2e3c" d="M256 387.916c23.093 0 41.813-9.156 41.813-20.452h-83.629c0 11.296 18.716 20.452 41.816 20.452Z"></path><path fill="#ffa48f" d="M394.392 100.7c-28.084 34.91-79.531 58.311-138.4 58.311S145.69 135.61 117.606 100.7a181.9 181.9 0 0 0-18.772 26.65c10.585 35.276 42.252 64.652 84.728 80.524l3.089-15.276 3.08 17.459A209.014 209.014 0 0 0 256 220.629c1.028 0 2.04-.043 3.062-.058l5.657-27.971 4.864 27.575a200.638 200.638 0 0 0 71.138-17.387l2.06-10.188 1.5 8.5c34.442-16.755 59.665-43.017 68.885-73.755a181.893 181.893 0 0 0-18.774-26.645Z"></path><path d="M297.67 362.168h-83.624a5 5 0 0 0-5 5c0 14.509 20.125 25.452 46.812 25.452s46.812-10.943 46.812-25.452a5 5 0 0 0-5-5Zm-41.812 20.452c-16.282 0-29.383-4.872-34.5-10.452h68.992c-5.109 5.58-18.211 10.452-34.492 10.452Z"></path><path d="M255.862 31.252C153.047 31.252 69.4 114.9 69.4 217.712v202.366a5 5 0 0 0 2.8 4.49l24.42 11.958a5 5 0 0 0 7.2-4.49v-6.855l6.125 9.553a5 5 0 0 0 4.209 2.3h13.137a5 5 0 0 0 5-5V422.8h46.477a146.329 146.329 0 0 0 154.2 0h46.467v9.237a5 5 0 0 0 5 5h13.138a5 5 0 0 0 4.209-2.3l6.125-9.553v6.855a5 5 0 0 0 7.2 4.49l24.42-11.958a5 5 0 0 0 2.8-4.49V217.712c-.004-102.812-83.65-186.46-186.465-186.46ZM132.292 412.8v-35.779a147.9 147.9 0 0 0 32.272 35.779Zm247.139 0h-32.28a147.884 147.884 0 0 0 32.28-35.776Zm0-56.375a136.854 136.854 0 0 1-123.572 78.333 136.86 136.86 0 0 1-123.566-78.305v-78.235a4.393 4.393 0 0 0 7.066-3.506 41.433 41.433 0 0 1 13.488-30.6h4.022a42.2 42.2 0 0 0-12.414 30.3c0 22.223 16.292 40.3 36.319 40.3s36.319-18.081 36.319-40.3a42.2 42.2 0 0 0-12.414-30.3h4.294a41.42 41.42 0 0 1 13.493 30.6 4.413 4.413 0 0 0 8.826 0 50.073 50.073 0 0 0-10.409-30.6h34.227a5 5 0 0 0 4.9-4.009l4.23-20.916 3.668 20.793a5 5 0 0 0 4.923 4.132h60.342a5 5 0 0 0 4.9-4.009l4.229-20.916 3.316 18.795-52.814 32.987a4.413 4.413 0 0 0 .5 7.753l69.471 31.927a4.413 4.413 0 1 0 3.685-8.02l-62.034-28.51 48.043-30.007h22.611l4.354 7.876Zm-247.139-94.886V257.6l7.458-13.489h1.2a50.242 50.242 0 0 0-8.658 17.428Zm56.484-27.624.221 1.252a32.81 32.81 0 0 0-5.857-.96l.2-.972a41.424 41.424 0 0 1 5.436.68Zm-3.679-9.386 1.081-5.343.977 5.543c-.68-.086-1.369-.142-2.055-.2Zm22 49.888c0 16.71-11.807 30.3-26.319 30.3s-26.319-13.594-26.319-30.3 11.807-30.3 26.319-30.3 26.314 13.59 26.314 30.3Zm225.226 142.542L417.9 424.02v-15.9a5 5 0 0 0-9.209-2.7l-13.859 21.615h-5.4V250.7a4.989 4.989 0 0 0-.624-2.419l-6.408-11.588a5 5 0 0 0-4.376-2.581h-10.015a4.4 4.4 0 0 0-5.732-6.533l-7.511 4.69-7.2-40.834a5 5 0 0 0-9.825-.122l-8.655 42.8h-52.058l-7.528-42.677a5 5 0 0 0-9.824-.123l-8.656 42.8h-52.055l-7.529-42.677a5 5 0 0 0-9.824-.122l-8.656 42.8H136.8a5 5 0 0 0-4.376 2.581l-9.51 17.2a5 5 0 0 0-.624 2.419v170.722h-5.4l-13.86-21.615a5 5 0 0 0-9.209 2.7v15.9L79.4 416.959V217.712c0-97.3 79.16-176.46 176.461-176.46s176.461 79.16 176.461 176.46Z"></path></g></svg>