<svg xmlns="http://www.w3.org/2000/svg" viewBox="0 0 30 20" id="south-korea-flag">
  <path d="M0 0h30v20H0z"></path>
  <path fill="#fff" d="M1 1h28v18H1z"></path>
  <path fill="#c60c30" d="M15 5.846a4.15 4.15 0 0 1 4.143 3.942A2.077 2.077 0 0 0 15 10a2.077 2.077 0 0 1-4.154 0A4.154 4.154 0 0 1 15 5.846z"></path>
  <path fill="#003478" d="M15 14.154a4.15 4.15 0 0 1-4.143-3.942A2.077 2.077 0 0 0 15 10a2.077 2.077 0 0 1 4.154 0A4.154 4.154 0 0 1 15 14.154z"></path>
  <path d="m9.77 4.764.423.244-1.955 3.386-.423-.244zM8.923 4.274l.424.245-1.955 3.386-.424-.244zM8.076 3.785l.423.245-1.955 3.386-.423-.245zM7.815 11.85l.424-.245 1.955 3.386-.424.245zM6.968 12.339l.423-.245.856 1.482-.424.244zM8.068 14.243 8.49 14l.856 1.481-.424.245zM6.121 12.828l.424-.245L8.5 15.97l-.424.244zM22.608 12.094l.424.245-.856 1.481-.423-.244zM21.508 13.999l.423.244-.855 1.482-.424-.244zM21.762 11.606l.423.245-.855 1.482-.424-.245zM20.662 13.51l.424.245-.856 1.481-.423-.244zM23.455 12.583l.423.244-.855 1.482-.424-.244zM22.355 14.488l.423.244-.855 1.482-.424-.244zM20.653 4.519l.424-.245 1.955 3.387-.424.244zM20.907 6.912l.423-.244.856 1.481-.424.245zM19.807 5.008l.423-.245.856 1.482-.424.244zM22.6 5.934l.423-.244.856 1.481-.424.245zM21.5 4.03l.423-.245.855 1.482-.423.245z"></path>
</svg>
