<svg xmlns="http://www.w3.org/2000/svg" viewBox="0 0 30 20" id="china-flag">
  <path d="M0 0h30v20H0z"></path>
  <path fill="#de2110" d="M1 1h28v18H1z"></path>
  <path fill="#ffde00" d="M4.917 6.949 3.292 8.122l.614-1.907L2.288 5h2.004l.625-1.878L5.542 5h2.003L5.928 6.215l.613 1.907z"></path>
  <g fill="#ffde00">
    <path d="m8.746 2.943-.706.152.479-.541-.358-.634.661.29.477-.529-.065.709.66.29-.709.167-.073.717zM8.746 9.443l-.706.152.479-.541-.358-.634.661.29.477-.529-.065.709.66.29-.709.167-.073.717zM10.42 4.693l-.702-.167.664-.282-.05-.726.472.546.658-.272-.364.612.472.546-.712-.155-.375.616zM10.781 7.67l-.585.423.221-.687-.582-.437h.721l.225-.676.225.676h.722l-.583.437.221.687z"></path>
  </g>
</svg>
