<svg xmlns="http://www.w3.org/2000/svg" viewBox="0 0 30 20" id="india-flag"><path d="M0 0h30v20H0z"></path><path fill="#f93" d="M1 1h28v6H1z"></path><path fill="#128807" d="M1 13h28v6H1z"></path><path fill="#fff" d="M1 7h28v6H1z"></path><circle cx="14.977" cy="10.007" r="3" fill="#314294"></circle><circle cx="14.977" cy="10.007" r="2.7" fill="#fff"></circle><path fill="#314294" d="M14.977 9.801l.062-1.171-.062-1.158-.063 1.158zM14.976 10.213l-.062 1.171.063 1.159.062-1.159zM14.874 9.829l-.532-1.045-.633-.973.525 1.035zM15.08 10.186l.531 1.045.634.972-.526-1.035zM14.798 9.904l-.982-.639-1.035-.525.972.633zM15.155 10.111l.983.639 1.035.525-.973-.633zM14.771 10.007L13.6 9.945l-1.159.062 1.159.063zM15.183 10.008l1.171.062 1.158-.063-1.158-.062zM14.798 10.11l-1.045.532-.972.633 1.035-.525zM15.156 9.905l1.044-.532.973-.633-1.035.525zM14.873 10.186l-.639.982-.525 1.035.633-.972zM15.08 9.829l.639-.983.526-1.035-.634.973z"></path></svg>