<?xml version="1.0" encoding="utf-8"?>
<!-- Generator: Adobe Illustrator 27.5.0, SVG Export Plug-In . SVG Version: 6.00 Build 0)  -->
<svg version="1.1" xmlns="http://www.w3.org/2000/svg" xmlns:xlink="http://www.w3.org/1999/xlink" x="0px" y="0px"
	 viewBox="0 0 750 500" style="enable-background:new 0 0 750 500;" xml:space="preserve">
<g id="Floor">
	
		<line style="fill:none;stroke:#263238;stroke-width:2;stroke-linecap:round;stroke-linejoin:round;stroke-miterlimit:10;" x1="698.383" y1="422.715" x2="724.936" y2="422.715"/>
	
		<line style="fill:none;stroke:#263238;stroke-width:2;stroke-linecap:round;stroke-linejoin:round;stroke-miterlimit:10;" x1="442.383" y1="422.715" x2="679.806" y2="422.715"/>
	
		<line style="fill:none;stroke:#263238;stroke-width:2;stroke-linecap:round;stroke-linejoin:round;stroke-miterlimit:10;" x1="411.464" y1="422.715" x2="423.258" y2="422.715"/>
	
		<line style="fill:none;stroke:#263238;stroke-width:2;stroke-linecap:round;stroke-linejoin:round;stroke-miterlimit:10;" x1="237.044" y1="422.715" x2="347.064" y2="422.715"/>
	
		<line style="fill:none;stroke:#263238;stroke-width:2;stroke-linecap:round;stroke-linejoin:round;stroke-miterlimit:10;" x1="132.596" y1="422.715" x2="187.391" y2="422.715"/>
	
		<line style="fill:none;stroke:#263238;stroke-width:2;stroke-linecap:round;stroke-linejoin:round;stroke-miterlimit:10;" x1="31.489" y1="422.715" x2="111.83" y2="422.715"/>
	
		<line style="fill:none;stroke:#263238;stroke-width:2;stroke-linecap:round;stroke-linejoin:round;stroke-miterlimit:10;" x1="92.085" y1="346.235" x2="724.936" y2="346.235"/>
	
		<line style="fill:none;stroke:#263238;stroke-width:2;stroke-linecap:round;stroke-linejoin:round;stroke-miterlimit:10;" x1="31.489" y1="346.235" x2="76.085" y2="346.235"/>
	
		<line style="fill:none;stroke:#263238;stroke-width:2;stroke-linecap:round;stroke-linejoin:round;stroke-miterlimit:10;" x1="70.638" y1="287.616" x2="724.936" y2="287.616"/>
	
		<line style="fill:none;stroke:#263238;stroke-width:2;stroke-linecap:round;stroke-linejoin:round;stroke-miterlimit:10;" x1="31.489" y1="287.616" x2="47.489" y2="287.616"/>
</g>
<g id="Sparkles">
	<g>
		<g>
			<path style="fill:none;stroke:#263238;stroke-width:2;stroke-linecap:round;stroke-linejoin:round;stroke-miterlimit:10;" d="
				M581.243,70.705v3.642"/>
			<path style="fill:none;stroke:#263238;stroke-width:2;stroke-linecap:round;stroke-linejoin:round;stroke-miterlimit:10;" d="
				M581.243,78.454v3.643"/>
			<path style="fill:none;stroke:#263238;stroke-width:2;stroke-linecap:round;stroke-linejoin:round;stroke-miterlimit:10;" d="
				M575.547,76.401h3.643"/>
			<path style="fill:none;stroke:#263238;stroke-width:2;stroke-linecap:round;stroke-linejoin:round;stroke-miterlimit:10;" d="
				M583.296,76.401h3.642"/>
		</g>
		<g>
			<path style="fill:none;stroke:#263238;stroke-width:2;stroke-linecap:round;stroke-linejoin:round;stroke-miterlimit:10;" d="
				M702.615,210.033v3.643"/>
			<path style="fill:none;stroke:#263238;stroke-width:2;stroke-linecap:round;stroke-linejoin:round;stroke-miterlimit:10;" d="
				M702.615,217.783v3.643"/>
			<path style="fill:none;stroke:#263238;stroke-width:2;stroke-linecap:round;stroke-linejoin:round;stroke-miterlimit:10;" d="
				M696.92,215.73h3.642"/>
			<path style="fill:none;stroke:#263238;stroke-width:2;stroke-linecap:round;stroke-linejoin:round;stroke-miterlimit:10;" d="
				M704.669,215.73h3.642"/>
		</g>
		<g>
			<path style="fill:none;stroke:#263238;stroke-width:2;stroke-linecap:round;stroke-linejoin:round;stroke-miterlimit:10;" d="
				M702.615,61.518v3.643"/>
			<path style="fill:none;stroke:#263238;stroke-width:2;stroke-linecap:round;stroke-linejoin:round;stroke-miterlimit:10;" d="
				M702.615,69.267v3.643"/>
			<path style="fill:none;stroke:#263238;stroke-width:2;stroke-linecap:round;stroke-linejoin:round;stroke-miterlimit:10;" d="
				M696.919,67.214h3.642"/>
			<path style="fill:none;stroke:#263238;stroke-width:2;stroke-linecap:round;stroke-linejoin:round;stroke-miterlimit:10;" d="
				M704.669,67.214h3.642"/>
		</g>
		<g>
			<path style="fill:none;stroke:#263238;stroke-width:2;stroke-linecap:round;stroke-linejoin:round;stroke-miterlimit:10;" d="
				M160.519,464.473v3.643"/>
			<path style="fill:none;stroke:#263238;stroke-width:2;stroke-linecap:round;stroke-linejoin:round;stroke-miterlimit:10;" d="
				M160.519,472.223v3.643"/>
			<path style="fill:none;stroke:#263238;stroke-width:2;stroke-linecap:round;stroke-linejoin:round;stroke-miterlimit:10;" d="
				M154.824,470.169h3.642"/>
			<path style="fill:none;stroke:#263238;stroke-width:2;stroke-linecap:round;stroke-linejoin:round;stroke-miterlimit:10;" d="
				M162.574,470.169h3.642"/>
		</g>
		<g>
			<path style="fill:none;stroke:#263238;stroke-width:2;stroke-linecap:round;stroke-linejoin:round;stroke-miterlimit:10;" d="
				M54.122,378.779v3.642"/>
			<path style="fill:none;stroke:#263238;stroke-width:2;stroke-linecap:round;stroke-linejoin:round;stroke-miterlimit:10;" d="
				M54.122,386.529v3.642"/>
			<path style="fill:none;stroke:#263238;stroke-width:2;stroke-linecap:round;stroke-linejoin:round;stroke-miterlimit:10;" d="
				M48.426,384.475h3.643"/>
			<path style="fill:none;stroke:#263238;stroke-width:2;stroke-linecap:round;stroke-linejoin:round;stroke-miterlimit:10;" d="
				M56.175,384.475h3.643"/>
		</g>
		<g>
			<path style="fill:none;stroke:#263238;stroke-width:2;stroke-linecap:round;stroke-linejoin:round;stroke-miterlimit:10;" d="
				M279.068,55.822v3.643"/>
			<path style="fill:none;stroke:#263238;stroke-width:2;stroke-linecap:round;stroke-linejoin:round;stroke-miterlimit:10;" d="
				M279.068,63.571v3.642"/>
			<path style="fill:none;stroke:#263238;stroke-width:2;stroke-linecap:round;stroke-linejoin:round;stroke-miterlimit:10;" d="
				M273.372,61.518h3.643"/>
			<path style="fill:none;stroke:#263238;stroke-width:2;stroke-linecap:round;stroke-linejoin:round;stroke-miterlimit:10;" d="
				M281.121,61.518h3.643"/>
		</g>
	</g>
</g>
<g id="Speech_bubble">
	<g>
		<path style="fill:#FF367C;" d="M667.18,119.311c-4.271,0.121-7.791,8.125-7.791,8.125s-2.858-8.886-7.858-7.925
			c-0.689,0.132-1.527,0.41-2.139,1.204c-5.947,7.7,9.998,21.567,9.998,21.567s16.782-15.353,10.265-22.069
			C668.895,119.433,667.908,119.291,667.18,119.311z"/>
		<path style="fill:none;stroke:#FFC051;stroke-width:2;stroke-linejoin:round;stroke-miterlimit:10;" d="M633.789,128.536
			c0-14.244,11.547-25.79,25.79-25.79c14.244,0,25.79,11.547,25.79,25.79c0,14.243-11.547,25.789-25.79,25.789
			C645.336,154.326,633.789,142.779,633.789,128.536z"/>
		<path style="fill:none;stroke:#FFC051;stroke-width:2;stroke-linejoin:round;stroke-miterlimit:10;" d="M618.825,154.326
			c0-3.573,2.896-6.469,6.469-6.469c3.574,0,6.47,2.896,6.47,6.469c0,3.573-2.896,6.47-6.47,6.47
			C621.721,160.796,618.825,157.899,618.825,154.326z"/>
	</g>
</g>
<g id="Characters_3">
	<g>
		<path style="fill:#263238;" d="M578.06,165.722c-12.595-4.643-40.245-13.362-40.245-13.362l-3.764-0.15
			c-2.071-26.867-14.53-49.45-31.744-60.048c-0.507-5.729-4.467-7.297-10.247-7.813l-74.496,4.454
			c-8.767,0.891-12.32,5.335-12.842,13.186l-0.324,27.781c-4.593-14.116-12.278-25.902-21.881-33.726l0.086-1.322
			c0.522-7.851-3.726-9.788-10.288-10.373l-74.472,4.454c-8.767,0.891-12.32,5.335-12.842,13.186l-0.25,20.552
			c-5.172-12.131-12.766-22.061-21.872-28.547c0.21-7.231-3.936-9.079-10.285-9.646l-74.497,4.454
			c-8.767,0.891-12.294,5.335-12.816,13.186l-0.214,17.535c-5.387-11.359-12.956-20.581-21.903-26.507
			c-0.183-6.426-4.236-8.127-10.291-8.668l-74.497,4.454c-8.766,0.891-12.32,5.335-12.842,13.186l-1.592,133.706
			c-0.414,6.24,1.354,17.387,11.729,19.223c0,0,496.931,0.301,521.757-6.066c4.291-1.1,4.833-6.761,4.981-8.468
			c1.672-19.423,4.248-40.015,4.904-58.077C587.59,174.658,584.802,168.208,578.06,165.722z"/>
		<path style="fill:#263238;" d="M81.835,70.076c1.34,2.988,4.362,4.265,7.957,4.68c3.111,5.446,9.419,8.314,15.575,6.516
			c5.475-1.6,9.236-6.415,9.937-11.912c2.477-1.272,5.691-3.579,4.695-7.24c-0.954-3.505-4.376-5.295-4.376-5.295
			s0.687-8.435-3.714-10.865c-6.001-3.315-11.364,3.322-11.364,3.322s-5.302-2.528-9.228-1.071c-0.561,0.208-1.09,0.503-1.575,0.892
			c-4.116,3.303-2.233,7.658-2.233,7.658s-3.488,0.196-4.68,2.074c-1.193,1.878,0.794,5.773,0.794,5.773
			S80.509,67.121,81.835,70.076z"/>
		<path style="fill:#263238;" d="M448.66,82.031c6.792,1.366,10.185-2.982,11.471-4.837c2.402,2.309,5.58,3.756,9.114,3.756
			c7.433,0,13.467-6.254,13.467-13.958c0-2.874-0.854-5.533-2.292-7.752c0.944-1.161,2.146-3.148,1.936-6.114
			c-0.271-3.836-4.38-8.585-9.043-8.581c-0.687,0.001-1.374,0.077-2.043,0.221c-4.686,1.01-8.688,5.027-8.688,5.027
			s-6.942-1.988-11.192,3.572c-2.917,3.815-2.216,6.176-3.038,10.68c-0.626,3.424-5.105,3.462-6.307,7.273
			C439.804,78.425,445.544,81.404,448.66,82.031z"/>
		<path style="fill:#263238;" d="M183.942,53.388c2.807,1.975,6.416,3.564,9.348,4.526c-1.597,0.374-3.475,1.042-4.128,2.715
			c-1.506,3.859,0.596,7.097,0.596,7.097s-4.614,1.714-5.359,4.073c-2.242,7.104,3.249,10.491,6.868,10.491
			c5.867,0,9.53-3.247,10.817-5.102c2.402,2.309,5.576,3.764,9.11,3.764c7.433,0,13.477-6.264,13.477-13.968
			c0-2.874-0.865-5.515-2.303-7.735c0.945-1.161,2.155-3.165,1.945-6.13c-0.271-3.836-4.387-8.583-9.05-8.578
			c-0.688,0.001-1.376,0.082-2.044,0.226c-4.687,1.01-5.716,4.176-5.716,4.176s-5.462-4.391-9.746,0.144
			c-0.7,0.74-1.151,1.999-1.509,3.312c-2.569-5.269-7.004-11.826-11.829-11.602c-0.51,0.024-1.012,0.122-1.529,0.308
			C176.658,43.351,179.43,50.214,183.942,53.388z"/>
		<path style="fill:#263238;" d="M334.949,68.453c1.34,2.988,4.363,4.265,7.958,4.68c3.11,5.446,9.419,8.314,15.575,6.515
			c5.475-1.6,10.517-6.931,10.103-17.436c2.477-1.272,6.432-5.835,6.376-9.638c-0.137-9.496-7.869-10.271-11.69-9.496
			c-7.233,1.467-10.558,5.715-10.558,5.715s-4.383-3.737-8.282-2.206c-4.993,1.961-3.808,8.55-3.808,8.55s-3.488,0.197-4.68,2.074
			c-1.193,1.878,0.794,5.773,0.794,5.773S333.624,65.498,334.949,68.453z"/>
	</g>
	<path style="fill:none;stroke:#263238;stroke-width:2;stroke-linecap:round;stroke-linejoin:round;stroke-miterlimit:10;" d="
		M54.122,254.136v41.529h3.339l6.178-41.529H54.122z"/>
</g>
<g id="Characters_2">
	<g>
		<path style="fill:#FF367C;" d="M653.464,222.107c-13.854-4.643-44.267-13.362-44.267-13.362l-5.801-0.209
			c-2.134-25.486-15.116-47.055-33.228-57.76c0.414-7.564-4.188-9.464-11.3-10.041l-81.944,4.454
			c-9.643,0.891-13.552,5.335-14.125,13.185l-0.168,13.051c-6.259-9.924-14.571-17.824-24.174-22.734
			c-0.506-5.842-4.898-7.436-11.307-7.956l-81.917,4.454c-9.643,0.891-13.552,5.335-14.125,13.185l-0.247,18.495
			c-5.895-11.169-14.229-20.244-24.099-26.083c0.419-7.573-4.185-9.474-11.3-10.051l-81.945,4.454
			c-9.642,0.891-13.524,5.335-14.097,13.185l-0.026,1.94c-7.21-7.472-15.891-12.821-25.427-15.27
			c-1.747-2.923-5.396-3.921-10.195-4.31l-37.37,2.031c2.196-1.361,4.041-3.349,5.502-5.338c0.664,0.504,2.352,1.367,3.261,1.481
			c7.73,0.969,12.376-4.487,13.825-6.503c2.705,2.51,6.284,4.081,10.264,4.081c8.37,0,15.165-6.794,15.165-15.166
			c0-3.122-0.962-6.011-2.581-8.423c1.063-1.262,2.417-3.421,2.18-6.642c-0.305-4.168-4.932-9.328-10.183-9.324
			c-0.774,0.001-1.548,0.083-2.301,0.24c-5.277,1.098-9.784,5.462-9.784,5.462s-7.818-2.16-12.605,3.881
			c-3.285,4.145-2.495,6.71-3.421,11.604c-0.705,3.72-5.473,3.862-7.103,7.903c-0.441,1.091-0.63,2.345-0.6,3.641
			c-4.643-0.224-10.017,0.046-12.346,2.322c-3.881,3.792-2.381,8.977,1.065,11.305l-34.916,1.898
			c-9.643,0.891-13.552,5.335-14.125,13.185l-1.752,133.707c-0.456,6.239,1.489,17.386,12.902,19.222
			c0,0,546.612,0.301,573.919-6.066c4.72-1.1,5.317-6.761,5.478-8.468c1.84-19.423,4.672-40.015,5.395-58.077
			C663.946,231.043,660.88,224.593,653.464,222.107z"/>
		<path style="fill:#FF367C;" d="M360.857,122.944c0,8.371,6.785,15.157,15.157,15.157c8.37,0,15.155-6.785,15.155-15.157
			c0-8.37-6.785-15.156-15.155-15.156C367.642,107.788,360.857,114.574,360.857,122.944z"/>
		<path style="fill:#FF367C;" d="M344.435,98.589c4.253-1.192,6.733-5.605,5.542-9.857c-1.191-4.252-5.605-6.733-9.857-5.542
			c-4.253,1.192-6.734,5.605-5.542,9.857C335.77,97.299,340.184,99.781,344.435,98.589z"/>
		<path style="fill:#FF367C;" d="M346.994,107.719c1.414,5.043,6.647,7.985,11.69,6.572c5.043-1.413,7.985-6.647,6.572-11.689
			c-1.414-5.043-6.647-7.985-11.69-6.572C348.524,97.443,345.581,102.677,346.994,107.719z"/>
		<path style="fill:#FF367C;" d="M243.514,126.981c1.722,6.479,7.564,11.283,14.586,11.283c6.246,0,11.605-3.787,13.925-9.183
			c2.982-0.559,7.043-1.953,7.043-5.983c0-3.857-3.101-6.702-3.101-6.702s3.151-8.394-0.801-12.184c-5.388-5.168-12.964,0-12.964,0
			s-4.876-4.157-9.443-3.841c-0.653,0.045-1.296,0.188-1.921,0.44c-5.298,2.141-4.562,7.143-4.562,7.143s-3.741-0.839-5.542,0.72
			c-1.8,1.559-0.82,6.122-0.82,6.122s-4.012,1.634-3.462,5.042C237.009,123.284,239.835,125.487,243.514,126.981z"/>
		<path style="fill:#FF367C;" d="M493.874,106.707c2.734,1.923,6.247,3.47,9.101,4.406c-1.555,0.364-3.383,1.014-4.018,2.644
			c-1.467,3.756,0.58,6.91,0.58,6.91s-4.493,1.669-5.218,3.965c-2.182,6.916,3.163,10.214,6.686,10.214
			c5.712,0,9.278-3.161,10.53-4.967c2.339,2.249,5.429,3.665,8.87,3.665c7.236,0,13.12-6.098,13.12-13.598
			c0-2.799-0.842-5.37-2.242-7.531c0.919-1.13,2.098-3.081,1.893-5.968c-0.264-3.734-4.271-8.355-8.811-8.351
			c-0.669,0.001-1.339,0.08-1.99,0.22c-4.563,0.983-5.565,4.065-5.565,4.065s-5.317-4.275-9.488,0.14
			c-0.681,0.721-1.12,1.946-1.469,3.224c-2.501-5.13-6.818-11.514-11.516-11.295c-0.497,0.023-0.985,0.119-1.489,0.3
			C486.783,96.936,489.481,103.617,493.874,106.707z"/>
	</g>
	<path style="fill:none;stroke:#FF367C;stroke-width:2;stroke-linecap:round;stroke-linejoin:round;stroke-miterlimit:10;" d="
		M80.015,301.309v56.756h5.096l9.43-56.756H80.015z"/>
</g>
<g id="Characters_1">
	<g>
		<g>
			<path style="fill:none;stroke:#263238;stroke-width:2;stroke-linecap:round;stroke-linejoin:round;stroke-miterlimit:10;" d="
				M118.525,370.339v66.978h6.331l11.713-66.978H118.525z"/>
			<path style="fill:none;stroke:#263238;stroke-width:2;stroke-linecap:round;stroke-linejoin:round;stroke-miterlimit:10;" d="
				M428.481,370.339v66.978h6.33l11.713-66.978H428.481z"/>
			<path style="fill:none;stroke:#263238;stroke-width:2;stroke-linecap:round;stroke-linejoin:round;stroke-miterlimit:10;" d="
				M694.119,369.606v66.978h-6.33l-11.713-66.978H694.119z"/>
			<g id="Layer-9_00000128447349543108812490000017356686145867817635_">
				<path style="fill:#FFC051;" d="M200.763,208.555l-84.892,4.46c-9.99,0.892-14.039,5.341-14.633,13.201l-1.815,133.87
					c-0.472,6.247,1.543,17.408,13.366,19.246c0,0,566.269,0.301,594.559-6.073c4.889-1.102,5.507-6.769,5.674-8.479
					c1.906-19.447,1.07-47.09,1.818-65.175c0.317-7.658-2.859-14.116-10.543-16.605c-14.352-4.649-45.86-13.379-45.86-13.379
					l-40.821,5.472l2.905-60.809c0.595-7.862-4.217-9.8-11.695-10.386l-84.892,4.46c-9.99,0.892-14.039,5.341-14.634,13.202
					l0.58,54.531l-28.69-0.998l4.147-56.153c0.595-7.861-4.246-9.799-11.724-10.385l-84.863,4.46
					c-9.99,0.892-14.039,5.341-14.634,13.201l-0.691,49.875l-28.691-0.998l4.148-56.153c0.594-7.861-4.217-9.799-11.696-10.385
					l-84.892,4.46c-9.99,0.892-14.01,5.341-14.605,13.201l-0.691,49.875l-28.691-0.998l4.148-56.153
					C213.053,211.08,208.242,209.141,200.763,208.555z"/>
			</g>
			<g id="Layer-34_00000087387816982638261340000006280024904992085659_">
				<path style="fill:none;stroke:#263238;stroke-width:2;stroke-linecap:round;stroke-linejoin:round;stroke-miterlimit:10;" d="
					M119.398,221.035c-14.303-1.38-10.881,15.495-11.43,30.477c-1.029,28.077-0.767,30.107-0.767,30.107"/>
				<path style="fill:none;stroke:#263238;stroke-width:2;stroke-linecap:round;stroke-linejoin:round;stroke-miterlimit:10;" d="
					M257.467,218.285c-5.676-0.548-8.561,1.781-10.01,5.725"/>
			</g>
		</g>
		<g>
			<path style="fill:#FF367C;" d="M579.931,274.448c0,0-2.136,2.548-3.86,6.512l-12.256-3.152c0,0-20.072,33.803-4.332,49.145
				c7.29,7.106,22.409,11.34,36.565,13.936l-5.804,4.185l28.226,46.552c0,0,3.994-2.683,5.863-3.889l-3.123,41.132h61.55
				c0,0,1.298-57.753,0.323-92.81c8.569-11.568,13.847-23.528,11.462-34.413C689.972,280.778,579.931,274.448,579.931,274.448z"/>
			<g id="Layer-38_00000067921182822880494160000008822939049372786341_">
				<path style="opacity:0.3023;fill:#FFFFFF;enable-background:new    ;" d="M579.929,274.438c0,0-0.426,0.619-0.689,0.97v61.379
					c0.666,0.202,1.326,0.402,2.002,0.595v-62.851C581.165,274.527,579.929,274.438,579.929,274.438z M587.124,275v63.977
					c0.666,0.156,1.333,0.289,2.002,0.438v-64.289C588.388,275.072,587.721,275.041,587.124,275z M595.008,275.595v65.071
					c0.343,0.065,0.691,0.156,1.033,0.219l-1.033,0.751v11.293l2.002,3.285v-80.463
					C595.815,275.646,596.103,275.686,595.008,275.595z M602.891,276.346v89.567l2.002,3.316v-92.695
					C604.234,276.469,603.534,276.407,602.891,276.346z M610.775,277.128v101.799l2.002,3.316V277.347
					C612.056,277.268,611.483,277.203,610.775,277.128z M563.818,277.816c0,0-0.284,0.546-0.312,0.595v51.649
					c0.641,0.42,1.305,0.824,2.002,1.22v-53.027L563.818,277.816z M618.628,278.035v113.5c0.07-0.047,1.274-0.86,2.002-1.345
					V278.285C619.972,278.206,619.278,278.112,618.628,278.035z M626.511,279.068v149.789h2.002V279.318
					C627.836,279.226,627.185,279.156,626.511,279.068z M571.357,279.724v54.215c0.68,0.284,1.296,0.608,2.002,0.876v-54.56
					L571.357,279.724z M634.395,280.069v148.787h2.002V280.381C635.714,280.278,635.076,280.169,634.395,280.069z M642.278,281.414
					v147.442h2.002V281.758C643.608,281.644,642.954,281.525,642.278,281.414z M650.162,282.79v146.066h2.002V283.134
					C651.507,283.007,650.824,282.914,650.162,282.79z M658.045,284.26v144.596h2.002V284.73
					C659.374,284.579,658.729,284.409,658.045,284.26z M665.898,286.075v142.781h2.002V286.638
					C667.214,286.455,666.601,286.254,665.898,286.075z M673.782,288.296v140.56h2.002V288.985
					C675.117,288.761,674.473,288.513,673.782,288.296z M681.665,291.175v137.681h1.094c0,0,1.288-57.732,0.313-92.789
					c0.222-0.299,0.376-0.607,0.595-0.907v-43.047C682.993,291.8,682.389,291.478,681.665,291.175z M557.623,291.206
					c-0.716,1.909-1.399,3.863-2.002,5.975v24.15c0.545,1.181,1.208,2.313,2.002,3.38V291.206z M689.549,295.523v30.283
					c0.765-1.426,1.381-2.862,2.002-4.286V297.15C690.971,296.592,690.281,296.056,689.549,295.523z"/>
			</g>
			<path style="fill:none;stroke:#263238;stroke-width:2;stroke-linecap:round;stroke-linejoin:round;stroke-miterlimit:10;" d="
				M638.152,427.86c0.012,4.108-0.032,21.179-0.032,21.179s50.119,2.095,57.001,0.645c4.641-0.978,0.057-6.154-10.947-11.587
				c-7.11-3.51-18.616-6.949-18.616-6.949l-0.055-4.424"/>
			<path style="fill:none;stroke:#FF367C;stroke-width:2;stroke-linecap:round;stroke-linejoin:round;stroke-miterlimit:10;" d="
				M667.293,438.097l8.331-7.172"/>
			<path style="fill:none;stroke:#FF367C;stroke-width:2;stroke-linecap:round;stroke-linejoin:round;stroke-miterlimit:10;" d="
				M671.475,439.903l8.331-7.172"/>
			<path style="fill:none;stroke:#263238;stroke-width:2;stroke-linecap:round;stroke-linejoin:round;stroke-miterlimit:10;" d="
				M591.383,391.612c0,0,14.262,28.708,16.413,31.232c3.077,3.61,4.463-3.436,3.976-15.699c-0.314-7.922-2.792-19.674-2.792-19.674
				l3.86-2.162"/>
			<path style="fill:none;stroke:#FF367C;stroke-width:2;stroke-linecap:round;stroke-linejoin:round;stroke-miterlimit:10;" d="
				M603.705,392.316l10.281,3.891"/>
			<path style="fill:none;stroke:#FF367C;stroke-width:2;stroke-linecap:round;stroke-linejoin:round;stroke-miterlimit:10;" d="
				M604.118,396.853l10.281,3.891"/>
			<path style="fill:#FFC051;" d="M515.755,280.663c0,0,59.097,7.664,80.508,12.629c7.86,1.823,12.583,2.948,12.583,16.426
				c0,13.603-1.658,65.895-1.658,65.895l-91.433-4.974V280.663z"/>
			<path style="fill:#FFFFFF;" d="M570.987,181.776c-0.599-8.739,6.001-16.307,14.739-16.905
				c8.738-0.598,16.307,6.001,16.904,14.739c0.599,8.738-6,16.307-14.738,16.904C579.154,197.112,571.586,190.513,570.987,181.776z"
				/>
			<g>
				<path style="fill:#263238;" d="M583.745,152.542c-8.124,3.114-9.385,10.384-9.385,10.384s-7.614-1.447-10.756,1.673
					c-5.932,5.895-0.89,11.28-0.89,11.28s-6.334,3.328-2.287,10.939c4.12,7.753,13.402,4.545,13.402,4.545s-0.469-0.924-1.009-2.428
					c1.01-0.83,7.105-3.716,10.977-8.502c5.462-6.751,8.609-14.595,8.609-14.595s4.552,1.303,7.39,5.28
					c2.325,3.257,2.985,6.906,2.985,6.906s4.597-2.694,4.908-7.387c0.479-7.209-6.575-8.172-6.575-8.172s0.061-5.966-4.243-9.092
					C593.517,150.938,586.741,151.393,583.745,152.542z"/>
				<path style="fill:none;stroke:#263238;stroke-width:2;stroke-linecap:round;stroke-linejoin:round;stroke-miterlimit:10;" d="
					M602.514,183.657c1.85-8.784-3.77-17.403-12.554-19.253c-8.784-1.849-17.403,3.771-19.253,12.555
					c-1.849,8.783,3.771,17.403,12.555,19.252C592.045,198.06,600.665,192.44,602.514,183.657z"/>
				<path style="fill:#FF367C;" d="M587.868,183.213c0.129-1.003-0.571-1.921-1.564-2.049c-0.993-0.128-1.903,0.582-2.033,1.585
					c-0.129,1.004,0.571,1.921,1.564,2.049C586.828,184.926,587.738,184.217,587.868,183.213z"/>
				<path style="fill:#263238;" d="M591.72,179.446c0.007-0.855-0.681-1.554-1.536-1.56c-0.855-0.007-1.553,0.681-1.56,1.536
					c-0.007,0.855,0.681,1.553,1.536,1.56C591.015,180.988,591.713,180.301,591.72,179.446z"/>
				<path style="fill:#263238;" d="M600.246,177.495c0.006-0.854-0.682-1.553-1.536-1.56c-0.855-0.006-1.554,0.682-1.561,1.536
					c-0.006,0.855,0.682,1.554,1.537,1.561C599.541,179.038,600.24,178.35,600.246,177.495z"/>
				<path style="fill:none;stroke:#263238;stroke-width:2;stroke-linecap:round;stroke-linejoin:round;stroke-miterlimit:10;" d="
					M590.61,186.11c0,0,0.628,1.818,1.91,2.425c1.901,0.898,3.829,0.061,3.829,0.061"/>
				<path style="fill:none;stroke:#263238;stroke-width:2;stroke-linecap:round;stroke-linejoin:round;stroke-miterlimit:10;" d="
					M595.124,178.089l4.245,5.641l-3.591,0.675"/>
			</g>
			<g id="Layer-39_00000030478221716023369520000004315662623825114799_">
				<path style="fill:none;stroke:#263238;stroke-width:2;stroke-linecap:round;stroke-linejoin:round;stroke-miterlimit:10;" d="
					M624.233,293.323c0,0,53.091,7.588,56.652,16.064c2.612,6.215,2.612,23.298,2.612,23.298"/>
				<path style="fill:none;stroke:#263238;stroke-width:2;stroke-linecap:round;stroke-linejoin:round;stroke-miterlimit:10;" d="
					M612.84,341.112l14.454,3.96l-3.139,40.084"/>
			</g>
			<g id="Layer-14_00000042700611614464678760000012548225767697823900_">
				<path style="fill:#263238;" d="M572.139,199.262c-1.201,0-2.158,0.988-2.158,2.189v2.316
					c-23.067-0.551-73.987-3.232-93.914,1.502c-21.902,5.202-28.599,13.693-29.752,25.872
					c-1.309,13.837,82.027,50.586,82.027,50.586l31.628,5.882c0,0,36.601,5.851,48.866,4.224
					c13.016-1.728,56.943,9.296,49.397-39.043c-4.729-30.298-31.06-42.633-56.123-46.864v-4.474c0-1.201-0.957-2.189-2.158-2.189
					H572.139z"/>
			</g>
			<path style="fill:none;stroke:#FFFFFF;stroke-width:2;stroke-linecap:round;stroke-linejoin:round;stroke-miterlimit:10;" d="
				M635.593,255.266c0,0-22.753,0.44-26.747,13.798c-4.432,14.822,5.553,19.697,5.553,19.697"/>
			<path style="fill:none;stroke:#FFFFFF;stroke-width:2;stroke-linecap:round;stroke-linejoin:round;stroke-miterlimit:10;" d="
				M613.986,233.438c0,0,3.904,6.178,5.622,10.852c1.719,4.673,4.055,12.092,4.055,12.092"/>
			<path style="fill:none;stroke:#FF367C;stroke-width:2;stroke-linecap:round;stroke-linejoin:round;stroke-miterlimit:10;" d="
				M562.301,225.487l6.311-9.008l5.743,9.008l6.843-9.008l7.142,9.008l6.632-9.008l5.54,9.008l6.667-8.405l5.661,8.702"/>
			<g id="Layer-18_00000100348533348536874050000013414197694359861684_">
				<path style="fill:#FFFFFF;" d="M473.113,187.732c-3.27-8.521,0.988-18.08,9.509-21.349c8.521-3.27,18.08,0.988,21.349,9.509
					c3.27,8.521-0.988,18.08-9.509,21.349C485.941,200.511,476.382,196.253,473.113,187.732z"/>
			</g>
			<path style="fill:#263238;" d="M511.831,287.616c0,0,65.175,8.92,75.158,27.066c9.983,18.148,15.844,111.473,15.844,111.473
				h-64.977l-3.128-85.464c0,0-54.869,0.162-63.945-10.726c-9.076-10.889-4.765-40.564-4.765-40.564L511.831,287.616z"/>
			<path style="fill:#FF367C;" d="M501.33,288.76c0,0,52.861,13.936,62.844,33.792c9.983,19.857-8.439,115.566-8.439,115.566
				h-61.204l18.381-94.356c0,0-51.741,1.998-60.817-9.916s-4.764-44.385-4.764-44.385L501.33,288.76z"/>
			<path style="fill:none;stroke:#FFFFFF;stroke-width:2;stroke-linecap:round;stroke-linejoin:round;stroke-miterlimit:10;" d="
				M519.032,301.932c0,0,24.815,8.956,34.417,23.116c6.088,8.978-6.612,103.834-6.612,103.834"/>
			<path style="fill:#FFFFFF;" d="M521.702,278.747c0,0,6.202,7.246,12.212,10.013c12.987,5.978,29.653,8.632,36.784,6.82
				c10.193-2.591,12.991-13.72,8.277-24.915c-4.725-11.219-30.241-15.4-30.241-15.4s-14.718-33.998-32.746-41.779
				c-15.071-6.505-34.525-7.987-53.218-1.374c-29.284,10.358-50.662,24.39-58.516,63.468c-3.166,15.756,3.325,30.389,13.75,35.457
				c12.19,5.926,30.513,5.339,39.754-7.09c5.903-7.94,5.031-13.187,5.031-13.187s13.322,7.593,35.812,3.914
				C514.833,292.02,521.702,278.747,521.702,278.747z"/>
			<path style="fill:none;stroke:#263238;stroke-width:2;stroke-linecap:round;stroke-linejoin:round;stroke-miterlimit:10;" d="
				M518.858,441.288c0,4.726-0.363,17.705-0.363,17.705s54.161,3.374,59.59,0.664c3.66-1.827-4.633-6.979-12.654-11.738
				c-7.623-4.525-16.598-7.833-16.598-7.833"/>
			<path style="fill:none;stroke:#FF367C;stroke-width:2;stroke-linecap:round;stroke-linejoin:round;stroke-miterlimit:10;" d="
				M550.727,448.085l9.233-8.221"/>
			<path style="fill:none;stroke:#FF367C;stroke-width:2;stroke-linecap:round;stroke-linejoin:round;stroke-miterlimit:10;" d="
				M555.343,450.175l9.233-8.221"/>
			<path style="fill:none;stroke:#263238;stroke-width:2;stroke-linecap:round;stroke-linejoin:round;stroke-miterlimit:10;" d="
				M570.698,446.065c0,0,38.56,3.677,43.99,0.966c3.66-1.827-4.633-6.979-12.654-11.738c-7.623-4.525-16.598-7.833-16.598-7.833"/>
			<path style="fill:none;stroke:#FF367C;stroke-width:2;stroke-linecap:round;stroke-linejoin:round;stroke-miterlimit:10;" d="
				M587.33,435.459l9.234-8.221"/>
			<path style="fill:none;stroke:#FF367C;stroke-width:2;stroke-linecap:round;stroke-linejoin:round;stroke-miterlimit:10;" d="
				M591.947,437.551l9.233-8.221"/>
			<path style="fill:none;stroke:#FFFFFF;stroke-width:2;stroke-linecap:round;stroke-linejoin:round;stroke-miterlimit:10;" d="
				M456.472,250.513c0,0-3.689,5.735-7.111,11.989c-2.932,5.36-5.277,12.293-5.277,12.293s15.805-1.153,17.397,12.821"/>
			<path style="fill:#FFC051;" d="M492.154,170.732c0,0-2.585,5.847-7.252,9.676c-6.127,5.027-11.228,7.289-11.228,7.289
				s-0.362,0.91,1.003,3.134c1.366,2.224,3.405,3.853,3.405,3.853s-3.214,8.679-16.391,9.066
				c-12.013,0.352-17.37-12.154-12.204-18.945c5.166-6.791,11.523-3.684,14.737-8.323c3.215-4.64,3.068-5.951,8.87-10.764
				c7.012-5.817,18.711-6.969,25.05-0.798c5.594,5.447,6.442,11.215,6.442,11.215s-3.851,0.686-7.311-1.011
				C494.111,173.575,492.154,170.732,492.154,170.732z"/>
			<path style="fill:none;stroke:#263238;stroke-width:2;stroke-linecap:round;stroke-linejoin:round;stroke-miterlimit:10;" d="
				M504.247,186.048c2.192-8.744-3.117-17.609-11.861-19.802c-8.744-2.192-17.609,3.118-19.802,11.862
				c-2.192,8.743,3.118,17.609,11.862,19.802C493.19,200.103,502.054,194.792,504.247,186.048z"/>
			<path style="fill:#FF367C;" d="M487.998,186.888c0.11-1.01-0.611-1.917-1.611-2.026c-0.999-0.109-1.899,0.622-2.009,1.632
				c-0.111,1.01,0.611,1.917,1.61,2.026C486.988,188.629,487.888,187.898,487.998,186.888z"/>
			<path style="fill:#263238;" d="M492.353,182.407c0.091-0.835-0.512-1.586-1.346-1.677c-0.835-0.091-1.586,0.512-1.677,1.347
				c-0.091,0.835,0.512,1.586,1.346,1.677C491.511,183.846,492.262,183.243,492.353,182.407z"/>
			<path style="fill:#263238;" d="M501.962,181.046c0.092-0.835-0.512-1.586-1.346-1.677c-0.835-0.091-1.586,0.511-1.677,1.346
				c-0.091,0.836,0.512,1.587,1.347,1.678C501.12,182.484,501.871,181.881,501.962,181.046z"/>
			<path style="fill:none;stroke:#263238;stroke-width:2;stroke-linecap:round;stroke-linejoin:round;stroke-miterlimit:10;" d="
				M495.679,180.386l2.91,5.917l-3.657,0.305"/>
			<path style="fill:none;stroke:#263238;stroke-width:2;stroke-linecap:round;stroke-linejoin:round;stroke-miterlimit:10;" d="
				M491.191,187.985c0,0,0.632,1.677,1.941,2.169c0.913,0.343,2.426-0.45,2.426-0.45"/>
			<path style="fill:none;stroke:#263238;stroke-width:2;stroke-linecap:round;stroke-linejoin:round;stroke-miterlimit:10;" d="
				M440.563,262.998c0,0,21.054-1.301,26.383,4.174c3.859,3.965,4.173,11.576,4.173,11.576"/>
			<path style="fill:none;stroke:#263238;stroke-width:2;stroke-linecap:round;stroke-linejoin:round;stroke-miterlimit:10;" d="
				M457.612,239.039c0,0-3.023,6.653-4.087,11.518c-1.064,4.864-2.365,12.534-2.365,12.534"/>
			<path style="fill:none;stroke:#263238;stroke-width:2;stroke-linecap:round;stroke-linejoin:round;stroke-miterlimit:10;" d="
				M518.494,235.629c0,0,4.939,9.127,6.215,20.076c1.276,10.95-3.956,21.43-3.956,21.43"/>
			<path style="fill:#FF367C;" d="M470.742,212.855c0,0,9.76-3.013,14.782-3.157c5.023-0.143,15.93,1.866,15.93,1.866l-9.76,32.434
				L470.742,212.855z"/>
			<path style="fill:#FF367C;" d="M489.477,252.363c0-1.679,1.361-3.04,3.04-3.04c1.68,0,3.041,1.362,3.041,3.04
				c0,1.68-1.362,3.041-3.041,3.041C490.838,255.404,489.477,254.042,489.477,252.363z"/>
			<path style="fill:#FF367C;" d="M489.477,263.09c0-1.68,1.361-3.041,3.04-3.041c1.68,0,3.041,1.361,3.041,3.041
				c0,1.679-1.362,3.04-3.041,3.04C490.838,266.131,489.477,264.769,489.477,263.09z"/>
			<g id="Layer-19_00000146499247365078889060000005142763117960717976_">
				<path style="fill:#FFC051;" d="M393.906,280.663c0,0,59.239,7.771,80.7,12.806c7.878,1.848,12.613,2.989,12.613,16.656
					c0,13.794-1.662,66.82-1.662,66.82l-91.651-5.046V280.663z"/>
			</g>
			<g id="Layer-19_00000011716190080327028120000006682413708269873809_">
				<path style="fill:none;stroke:#263238;stroke-width:2;stroke-linecap:round;stroke-linejoin:round;stroke-miterlimit:10;" d="
					M487.119,306.924c0.066,0.983,0.1,2.047,0.1,3.2c0,11.505-1.156,40.755-1.54,53.315"/>
				<path style="fill:none;stroke:#263238;stroke-width:2;stroke-linecap:round;stroke-linejoin:round;stroke-miterlimit:10;" d="
					M393.906,280.663c0,0,37.566,4.928,63.706,9.478"/>
			</g>
			<g id="Layer-15_00000047037801973692891170000007161486570435279276_">
				<path style="fill:none;stroke:#263238;stroke-width:2;stroke-linecap:round;stroke-linejoin:round;stroke-miterlimit:10;" d="
					M440.589,221.639c0,0-3.698,15.305,0.177,15.696c3.875,0.391,9.746-16.925,9.746-16.925"/>
				<path style="fill:none;stroke:#263238;stroke-width:2;stroke-linecap:round;stroke-linejoin:round;stroke-miterlimit:10;" d="
					M430.297,228.876c0,0,0.185-8.089,6.015-11.629c6.657-4.043,16.34-3.127,16.34-3.127"/>
				<path style="fill:none;stroke:#263238;stroke-width:2;stroke-linecap:round;stroke-linejoin:round;stroke-miterlimit:10;" d="
					M466.633,276.323c0,0,21.47-8.696,32.422,9.108c4.429,7.198-0.43,10.508-0.43,10.508s-0.936-3.162-3.265-6.784
					c-2.328-3.622-7.506-6.753-7.506-6.753s6.385,4.643,7.696,6.968c1.312,2.325,5.311,8.392,1.779,10.455
					c-2.428,1.418-4.383-3.751-6.67-5.949c-2.288-2.198-6.223-5.125-6.223-5.125s2.118,2.414,5.471,6.767
					c3.204,4.159,2.221,6.96,0.404,7.749c-1.794,0.781-10.779-9.445-10.779-9.445s-11.87,4.113-17.408-4.83"/>
				<path style="fill:none;stroke:#263238;stroke-width:2;stroke-linecap:round;stroke-linejoin:round;stroke-miterlimit:10;" d="
					M576.335,280.819c0,0,22.533-5.372,30.686,13.874c3.298,7.781-2.003,10.325-2.003,10.325s-0.45-3.268-2.208-7.198
					c-1.758-3.93-6.406-7.805-6.406-7.805s5.614,5.549,6.562,8.045c0.948,2.495,3.99,9.095,0.188,10.605
					c-2.613,1.037-3.769-4.367-5.701-6.884c-1.931-2.517-5.383-6-5.383-6s1.732,2.704,4.393,7.512
					c2.543,4.593,1.151,7.214-0.764,7.722c-1.891,0.501-9.237-10.958-9.237-10.958s-12.354,2.286-16.486-7.389"/>
				<path style="fill:none;stroke:#FFFFFF;stroke-width:2;stroke-linecap:round;stroke-linejoin:round;stroke-miterlimit:10;" d="
					M622.012,284.821c0,0-1.211,3.717-4.741,6.514c-3.53,2.797-9.169,1.993-9.169,1.993s-6.486,9.983-10.542,7.849
					c-2.946-1.55-2.399-4.364-0.213-7.842c2.156-3.432,7.252-7.367,7.252-7.367s-4.291,2.979-6.447,5.975
					c-2.156,2.995-3.891,7.333-3.891,7.333s-5.919-2.091-3.002-10.05c1.78-4.855,9.45-9.258,9.45-9.258s-4.207,2.223-7.212,5.65
					c-3.29,3.751-2.148,6.908-3.975,6.258c-7.124-2.537-0.979-19.241,12.419-20.935c4.536-0.574,12.423-0.077,12.423-0.077"/>
			</g>
		</g>
		<g>
			<path style="fill:none;stroke:#263238;stroke-width:2;stroke-linecap:round;stroke-linejoin:round;stroke-miterlimit:10;" d="
				M376.865,434c0,0,30.601,29.858,34.426,30.199c3.381,0.301,1.346-8.707-1.665-16.658c-2.601-6.87-7.589-14.531-7.589-14.531
				l24.764-44.225"/>
			<path style="fill:none;stroke:#263238;stroke-width:2;stroke-linecap:round;stroke-linejoin:round;stroke-miterlimit:10;" d="
				M405.512,376.944c-1.443,2.397-17.929,30.541-26.56,45.77"/>
			<path style="fill:none;stroke:#FF367C;stroke-width:2;stroke-linecap:round;stroke-linejoin:round;stroke-miterlimit:10;" d="
				M400.293,439.271l10.044-1.754"/>
			<path style="fill:none;stroke:#FF367C;stroke-width:2;stroke-linecap:round;stroke-linejoin:round;stroke-miterlimit:10;" d="
				M402.715,442.713l7.126-1.245l2.918-0.509"/>
			<path style="fill:none;stroke:#263238;stroke-width:2;stroke-linecap:round;stroke-linejoin:round;stroke-miterlimit:10;" d="
				M383.228,414.919l21.358,13.698"/>
			<path style="fill:none;stroke:#263238;stroke-width:2;stroke-linecap:round;stroke-linejoin:round;stroke-miterlimit:10;" d="
				M360.006,388.292c-0.717,3.774-14.67,69.843-14.67,69.843s44.866,13.054,49.726,11.735c3.275-0.889-3.742-8.225-9.591-13.275
				c-5.559-4.799-12.411-8.838-12.411-8.838l12.724-54.649"/>
			<path style="fill:none;stroke:#FF367C;stroke-width:2;stroke-linecap:round;stroke-linejoin:round;stroke-miterlimit:10;" d="
				M373.4,454.44l8.812-5.129"/>
			<path style="fill:none;stroke:#FF367C;stroke-width:2;stroke-linecap:round;stroke-linejoin:round;stroke-miterlimit:10;" d="
				M376.865,456.829l8.812-5.129"/>
			<path style="fill:none;stroke:#263238;stroke-width:2;stroke-linecap:round;stroke-linejoin:round;stroke-miterlimit:10;" d="
				M350.606,436.94l23.355,5.641"/>
			<path style="fill:#263238;" d="M331.865,280.129c0,0-22.652,20.851-6.365,38.921c10.494,11.644,35.57,16.808,35.57,16.808
				l-22.878,66.238h91.648c0,0,20.996-46.418,18.085-73.849c-3.223-30.374-64.555-45.335-64.555-45.335L331.865,280.129z"/>
			<g id="Layer-40_00000080917819735621063370000011691031301146277518_">
				<path style="opacity:0.2984;fill:#FFFFFF;enable-background:new    ;" d="M337.101,287.827l-7.601,13.076l15.235,0.094
					L337.101,287.827z M364.1,287.827l-7.602,13.076l15.236,0.094L364.1,287.827z M391.098,287.827l-7.602,13.076l15.236,0.094
					L391.098,287.827z M414.405,294.178l-3.91,6.725l15.235,0.094l-0.532-0.907C421.692,297.935,418.053,295.924,414.405,294.178z
					 M322.836,306.942l-2.189,3.785c0.893,2.786,2.379,5.58,4.849,8.321c0.324,0.36,0.775,0.654,1.125,1.001l3.848,0.031
					L322.836,306.942z M349.834,306.942l-7.57,13.076l15.204,0.062L349.834,306.942z M376.833,306.942l-7.571,13.076l15.204,0.062
					L376.833,306.942z M403.831,306.942l-7.571,13.076l15.204,0.062L403.831,306.942z M430.829,306.942l-7.57,13.076l15.203,0.062
					L430.829,306.942z M364.1,327.151l-4.817,8.259c0.552,0.126,1.783,0.438,1.783,0.438l-1.502,4.381l12.169,0.062L364.1,327.151z
					 M391.098,327.151l-7.602,13.045l15.236,0.094L391.098,327.151z M418.097,327.151l-7.602,13.045l15.235,0.094L418.097,327.151z
					 M445.094,327.151l-7.602,13.045l10.355,0.063c0.237-2.722,0.343-5.358,0.282-7.884L445.094,327.151z M376.833,346.235
					l-7.571,13.076l15.204,0.094L376.833,346.235z M403.831,346.235l-7.571,13.076l15.204,0.094L403.831,346.235z M430.829,346.235
					l-7.57,13.076l15.203,0.094L430.829,346.235z M354.62,354.494l-1.689,4.879l4.536,0.032L354.62,354.494z M364.1,366.475
					l-7.602,13.077l15.236,0.062L364.1,366.475z M391.098,366.475l-7.602,13.077l15.236,0.062L391.098,366.475z M418.097,366.475
					l-7.602,13.077l15.235,0.062L418.097,366.475z M440.058,375.141l-2.566,4.412h0.97
					C439.024,377.922,439.497,376.872,440.058,375.141z M349.834,385.59l-7.57,13.045l15.204,0.094L349.834,385.59z M376.833,385.59
					l-7.571,13.045l15.204,0.094L376.833,385.59z M403.831,385.59l-7.571,13.045l15.204,0.094L403.831,385.59z M430.829,385.59
					l-7.57,13.045l8.009,0.063c0.735-1.699,1.404-3.481,2.909-7.321L430.829,385.59z"/>
			</g>
			<path style="fill:#FF367C;" d="M392.231,298.676c0,0-9.004,5.256-23.346,5.256c-21.337,0-35.53-5.974-35.53-5.974
				s-24.982,18.275-46.046,10.037c-17.782-6.955-18.197-30.577-10.632-50.902c5.263-14.137,17.998-33.81,40.861-42.479
				c26.669-10.112,63.23-3.001,71.081-0.311c13.214,4.529,23.553,9.023,40.7,35.809c15.211,23.759,13.948,50.812-2.519,55.612
				C411.531,310.174,392.231,298.676,392.231,298.676z"/>
			<path style="fill:none;stroke:#263238;stroke-width:2;stroke-linecap:round;stroke-linejoin:round;stroke-miterlimit:10;" d="
				M303.538,265.62c0,0,9.622-10.257,16.152-12.379c8.274-2.691,18.049-0.699,23.924,9.977c4.241,7.706-10.016,30.106-10.016,30.106
				"/>
			<path style="fill:none;stroke:#263238;stroke-width:2;stroke-linecap:round;stroke-linejoin:round;stroke-miterlimit:10;" d="
				M324.438,236.378c0,0-2.224,3.392-2.918,6.464c-0.695,3.071-1.25,9.342-1.25,9.342"/>
			<path style="fill:#FFFFFF;" d="M360.067,220.896c0-1.141,0.925-2.065,2.065-2.065c1.14,0,2.065,0.924,2.065,2.065
				c0,1.14-0.925,2.065-2.065,2.065C360.992,222.962,360.067,222.036,360.067,220.896z"/>
			<path style="fill:#FFFFFF;" d="M360.659,228.396c0-1.14,0.925-2.065,2.065-2.065c1.14,0,2.065,0.925,2.065,2.065
				c0,1.14-0.925,2.065-2.065,2.065C361.584,230.462,360.659,229.537,360.659,228.396z"/>
			<path style="fill:#FFC051;" d="M333.355,216.728c0,0,3.384-34.66,11.846-44.231c8.51-9.627,24.455-9.213,30.386-1.178
				c6.805,9.219,7.64,41.976,7.64,41.976s-11.185,2.575-23.654,3.434C347.106,217.586,333.355,216.728,333.355,216.728z"/>
			<path style="fill:none;stroke:#FFFFFF;stroke-width:2;stroke-linecap:round;stroke-linejoin:round;stroke-miterlimit:10;" d="
				M370.14,200.666c0,0-3.534,5.913-10.748,9.483c-4.893,2.421-12.389,3.228-12.389,3.228"/>
			<path style="fill:#FFFFFF;" d="M345.972,190.466c-0.783-8.194,5.225-15.471,13.419-16.255
				c8.194-0.783,15.471,5.225,16.254,13.419c0.784,8.194-5.225,15.472-13.419,16.255
				C354.032,204.668,346.755,198.66,345.972,190.466z"/>
			<path style="fill:#263238;" d="M359.869,186.932c-0.832-0.164-1.642,0.357-1.799,1.193c-0.157,0.836,0.401,1.661,1.233,1.826
				c0.832,0.165,1.617-0.394,1.773-1.23C361.234,187.885,360.702,187.098,359.869,186.932z"/>
			<path style="fill:#263238;" d="M369.181,186.043c-0.833-0.165-1.643,0.356-1.8,1.192c-0.156,0.836,0.4,1.661,1.233,1.826
				c0.832,0.165,1.617-0.395,1.774-1.23C370.545,186.995,370.013,186.208,369.181,186.043z"/>
			<path style="fill:none;stroke:#263238;stroke-width:2;stroke-linecap:round;stroke-linejoin:round;stroke-miterlimit:10;" d="
				M362.349,195.456c-1.04-0.206-2.052,0.446-2.248,1.491c-0.196,1.044,0.501,2.075,1.541,2.281c1.04,0.206,2.02-0.492,2.216-1.537
				C364.054,196.646,363.389,195.664,362.349,195.456z"/>
			<path style="fill:#263238;" d="M375.252,183.521c0,0-4.838,0.756-9.058-1.931c-3.077-1.959-3.801-3.433-3.801-3.433
				s-1.729,4.143-6.284,6.832c-5.839,3.449-10.13,3.118-10.13,3.118s-1.273-12.494,13.943-13.947
				C370.938,173.108,375.252,183.521,375.252,183.521z"/>
			<path style="fill:none;stroke:#263238;stroke-width:2;stroke-linecap:round;stroke-linejoin:round;stroke-miterlimit:10;" d="
				M373.208,197.426c4.551-6.844,2.743-16.129-4.039-20.74c-6.782-4.612-15.97-2.803-20.521,4.039
				c-4.552,6.842-2.743,16.128,4.039,20.74C359.469,206.076,368.656,204.268,373.208,197.426z"/>
			<path style="fill:#FF367C;" d="M355.154,192.214c-0.408-0.754-0.135-1.692,0.611-2.096c0.746-0.404,1.681-0.121,2.089,0.633
				c0.408,0.753,0.135,1.692-0.611,2.096C356.499,193.25,355.563,192.968,355.154,192.214z"/>
			<path style="fill:none;stroke:#263238;stroke-width:2;stroke-linecap:round;stroke-linejoin:round;stroke-miterlimit:10;" d="
				M365.359,186.902l1.739,5.742l-3.904,0.263"/>
			<path style="fill:#FFFFFF;" d="M364.422,233.485c-1.434-0.306-4.694,3.152-4.541,5.355c0.072,1.035,3.379,0.094,2.715,0.828
				c-0.974,1.076,0.104,4.374,1.358,4.605c1.022,0.188,0.837-2.742,1.873-2.742c1.129,0,1.268,1.205,2.762,0.155
				c1.891-1.331,2.907-3.824,0.047-4.812c-0.316-0.109-1.017-0.008-0.937-0.362c0.212-0.935,2.864-2.477,1.17-3.88
				C366.911,231.007,365.734,233.764,364.422,233.485z"/>
			<path style="fill:#FFFFFF;" d="M369.753,243.352c-0.755-1.075,2.114-2.704,3.006-1.515c0.483,0.644-0.498,2.765,0.222,2.405
				c1.058-0.529,2.822-0.149,2.939,1.202c0.108,1.237-2.805,3.691-2.805,2.45c0-0.657,2.881,0.244,2.539,1.96
				c-0.423,2.113-3.166,4.473-5.3,4.631c-1.459,0.108-4.84-1.433-4.141-3.296c0.042-0.112,0.668-1.782,1.024-1.424
				c0.165,0.165-0.007,0.443-0.134,0.534c-1.918,1.37-3.053-2.043-2.672-3.429C365.387,243.405,370.017,243.727,369.753,243.352z"/>
			<path style="fill:#FFFFFF;" d="M395.545,251.499c1.227-0.802,1.074-5.551-0.598-6.996c-0.784-0.679-2.449,2.331-2.501,1.342
				c-0.077-1.45-3.175-3.01-4.224-2.284c-0.854,0.593,1.355,2.527,0.626,3.262c-0.797,0.801-1.75,0.049-2.057,1.85
				c-0.389,2.279,0.663,4.757,3.38,3.425c0.3-0.147,0.723-0.716,0.917-0.408c0.514,0.809-0.261,3.777,1.928,3.565
				C395.549,255.01,394.423,252.232,395.545,251.499z"/>
			<path style="fill:#FFFFFF;" d="M385.255,246.273c1.295,0.222,0.428,3.405-1.045,3.2c-0.797-0.111-1.611-2.302-1.863-1.538
				c-0.37,1.124-1.882,2.107-2.924,1.237c-0.953-0.795-0.641-4.591,0.24-3.716c0.466,0.462-2.204,1.872-3.18,0.419
				c-1.201-1.791-0.941-5.399,0.451-7.024c0.951-1.111,4.428-2.424,5.257-0.616c0.05,0.109,0.793,1.73,0.289,1.732
				c-0.234,0-0.31-0.317-0.285-0.471c0.38-2.327,3.603-0.726,4.316,0.522C388.294,243.139,384.802,246.195,385.255,246.273z"/>
			<path style="fill:#FFFFFF;" d="M374.103,231.806c-1.163-0.248-3.807,2.556-3.683,4.343c0.059,0.839,2.741,0.077,2.202,0.672
				c-0.79,0.873,0.084,3.548,1.101,3.735c0.829,0.152,1.519-2.224,1.519-2.224s1.028,0.978,2.24,0.126
				c1.534-1.079,2.358-3.101,0.038-3.903c-0.256-0.088-0.825-0.006-0.76-0.293c0.171-0.758,2.323-2.009,0.949-3.147
				C376.121,229.797,375.167,232.032,374.103,231.806z"/>
			<path style="fill:#FFFFFF;" d="M357.668,243.453c-0.67-0.953,1.874-2.397,2.665-1.342c0.428,0.572,0.198,2.132,0.198,2.132
				s2.502-0.132,2.606,1.066c0.095,1.097-2.488,2.172-2.488,2.172s2.555,0.216,2.25,1.737c-0.374,1.875-2.81,4.284-4.699,4.107
				c-3.04-0.284-3.514-2.165-2.895-3.816c0.038-0.1-2.292,0-2.357-2.936C352.88,243.387,357.901,243.786,357.668,243.453z"/>
			<g id="Layer-23_00000009560813215166531160000012670395675964035475_">
				<path style="fill:#FFC051;" d="M398.134,248.741h-52.798l8.538,59.924c0,2.164,2.045,3.919,4.569,3.919h27.363
					c2.524,0,4.569-1.755,4.569-3.919L398.134,248.741z"/>
			</g>
			<g id="Layer-27_00000066479664149190120010000013729225371867814790_">
				<path style="fill:#FF367C;" d="M350.96,248.753v39.512l2.909,20.397c0,0.945,0.445,1.795,1.095,2.472v-62.381H350.96z
					 M360.44,248.753v63.82h4.004v-63.82H360.44z M369.887,248.753v63.82h4.004v-63.82H369.887z M379.366,248.753v63.82h4.004
					v-63.82H379.366z M388.846,248.753v62.818c0.927-0.717,1.533-1.754,1.533-2.909l2.472-19.083v-40.826H388.846z"/>
			</g>
			<g id="Layer-24_00000112611304824445473780000000697862974125089694_">
				<path style="fill:none;stroke:#263238;stroke-width:2;stroke-linecap:round;stroke-linejoin:round;stroke-miterlimit:10;" d="
					M406.874,284.684c0,0-16.415-16.345-33.416-4.186c-6.875,4.915-3.681,9.853-3.681,9.853s2.089-2.553,5.64-4.986
					c3.552-2.435,9.538-3.313,9.538-3.313s-7.685,1.802-9.796,3.436c-2.111,1.633-8.152,5.674-5.697,8.947
					c1.687,2.249,5.495-1.757,8.456-2.895c2.961-1.138,7.723-2.308,7.723-2.308s-2.889,1.403-7.668,4.113
					c-4.566,2.591-4.748,5.553-3.38,6.986c1.35,1.415,13.599-4.524,13.599-4.524s9.345,8.398,17.919,2.303"/>
				<path style="fill:none;stroke:#263238;stroke-width:2;stroke-linecap:round;stroke-linejoin:round;stroke-miterlimit:10;" d="
					M327.212,251.983c0,0,6.224-22.311,27.01-20.114c8.404,0.889,8.06,6.757,8.06,6.757s-3.075-1.19-7.366-1.558
					c-4.29-0.367-9.932,1.82-9.932,1.82s7.575-2.22,10.217-1.84c2.642,0.38,9.89,0.919,9.367,4.975
					c-0.359,2.789-5.647,1.181-8.785,1.65c-3.137,0.469-7.858,1.8-7.858,1.8s3.204-0.204,8.7-0.2
					c5.251,0.003,6.868,2.49,6.385,4.411c-0.478,1.897-14.062,2.768-14.062,2.768s-3.99,11.913-14.455,10.838"/>
			</g>
			<g id="Layer-20_00000178204067190481955270000009227856692028894364_">
				<path style="fill:#FFC051;" d="M253.353,283.755c0,0,59.239,7.522,80.7,12.395c7.878,1.789,12.613,2.893,12.613,16.122
					c0,13.35-1.662,64.673-1.662,64.673l-91.651-4.883V283.755z"/>
			</g>
			<g id="Layer-20_00000176021735750123099140000016444527583080450967_">
				<path style="fill:none;stroke:#263238;stroke-width:2;stroke-linecap:round;stroke-linejoin:round;stroke-miterlimit:10;" d="
					M337.118,296.881c6.025,1.589,9.548,3.979,9.548,15.39c0,13.35-1.662,49.011-1.662,49.011"/>
			</g>
		</g>
		<g>
			<g id="Layer-28_00000003084573303612971860000011106007418807500205_">
				<path style="fill:#FFFFFF;" d="M180.755,194.357c0-8.95,7.256-16.206,16.207-16.206c8.95,0,16.206,7.256,16.206,16.206
					c0,8.951-7.256,16.206-16.206,16.206C188.011,210.563,180.755,203.308,180.755,194.357z"/>
			</g>
			<path style="fill:#263238;" d="M183.142,288.275l60.426,52.838l-47.535,53.15l47.535,39.178c0,0,71.523-87.697,63.31-111.374
				c-5.536-15.958-84.644-32.577-84.644-32.577L183.142,288.275z"/>
			<path style="fill:none;stroke:#263238;stroke-width:2;stroke-linecap:round;stroke-linejoin:round;stroke-miterlimit:10;" d="
				M274.037,448.889c1.387,4.443,6.643,21.28,6.643,21.28s54.616-16.119,59.196-20.6c3.087-3.02-6.634-4.908-15.972-6.524
				c-8.876-1.537-18.732-1.448-18.732-1.448l-1.111-3.558"/>
			<path style="fill:none;stroke:#FF367C;stroke-width:2;stroke-linecap:round;stroke-linejoin:round;stroke-miterlimit:10;" d="
				M311.061,447.838l6.185-10.819"/>
			<path style="fill:none;stroke:#FF367C;stroke-width:2;stroke-linecap:round;stroke-linejoin:round;stroke-miterlimit:10;" d="
				M315.973,448.256l6.185-10.818"/>
			<path style="fill:none;stroke:#263238;stroke-width:2;stroke-linecap:round;stroke-linejoin:round;stroke-miterlimit:10;" d="
				M207.58,400.703c-3.34,3.39-17.239,17.059-17.239,17.059s38.588,42.328,44.611,44.385c4.059,1.385,1.426-8.419-1.279-17.742
				c-2.57-8.863-7.022-17.847-7.022-17.847l5.863-6.498"/>
			<path style="fill:none;stroke:#FF367C;stroke-width:2;stroke-linecap:round;stroke-linejoin:round;stroke-miterlimit:10;" d="
				M224.567,434.047l11.954,0.938"/>
			<path style="fill:none;stroke:#FF367C;stroke-width:2;stroke-linecap:round;stroke-linejoin:round;stroke-miterlimit:10;" d="
				M226.482,438.635l11.953,0.938"/>
			<path style="fill:#263238;" d="M149.432,258.975c0-24.874,24.43-45.039,54.566-45.039c30.136,0,45.719,40.17,45.719,65.044
				c0,23.64-26.868,30.939-52.839,26.887C167.266,301.247,149.432,283.849,149.432,258.975z"/>
			<path style="fill:#FFFFFF;" d="M252.678,227.912c-13.819-14.598-28.425-12.133-32.765-11.859l-6.77,13.625
				c1.299,4.831,19.363,74.336,19.363,74.336l15.618-8.678c0,0,54.522,38.165,64.954,0.006
				c4.818-17.625-40.097-32.716-40.097-32.716S266.426,242.436,252.678,227.912z M181.465,216.756
				c-42.146,10.727-53.511,39.968-58.34,61.149c-3.389,14.863-1.504,40.405,19.011,44.289c19.16,3.627,34.271-9.706,34.271-9.706
				s20.478,4.581,33.842,3.029c-0.161-7.296-9.84-84.023-9.84-84.023S182.658,218.522,181.465,216.756z"/>
			<path style="fill:none;stroke:#FFFFFF;stroke-width:2;stroke-linecap:round;stroke-linejoin:round;stroke-miterlimit:10;" d="
				M155.013,274.427c0,0,10.828-13.113,26.048-15.398c10.686-1.604,26.467,11.218,18.942,27.85
				c-3.912,8.649-18.257,20.727-18.257,20.727"/>
			<path style="fill:none;stroke:#263238;stroke-width:2;stroke-linecap:round;stroke-linejoin:round;stroke-miterlimit:10;" d="
				M239.085,242.436c0,0,4.564,6.466,6.235,17.995c0.984,6.787,1.344,16.027,1.344,16.027"/>
			<path style="fill:none;stroke:#263238;stroke-width:2;stroke-linecap:round;stroke-linejoin:round;stroke-miterlimit:10;" d="
				M179.088,219.086l1.734,17.292l15.212-4.831"/>
			<path style="fill:none;stroke:#263238;stroke-width:2;stroke-linecap:round;stroke-linejoin:round;stroke-miterlimit:10;" d="
				M222.234,219.086l4.683,11.61l-11.363-0.56"/>
			<path style="fill:#263238;" d="M227.763,272.055c0-1.309,1.062-2.372,2.372-2.372c1.309,0,2.372,1.062,2.372,2.372
				c0,1.309-1.062,2.372-2.372,2.372C228.825,274.427,227.763,273.365,227.763,272.055z"/>
			<path style="fill:#263238;" d="M223.021,255.705c0-1.31,1.061-2.371,2.372-2.371c1.309,0,2.371,1.061,2.371,2.371
				c0,1.31-1.061,2.372-2.371,2.372C224.082,258.077,223.021,257.016,223.021,255.705z"/>
			<path style="fill:#263238;" d="M231.584,287.974c0-1.309,1.062-2.371,2.372-2.371c1.309,0,2.372,1.061,2.372,2.371
				c0,1.31-1.062,2.372-2.372,2.372C232.646,290.346,231.584,289.285,231.584,287.974z"/>
			<path style="fill:none;stroke:#FFC051;stroke-width:2;stroke-linecap:round;stroke-linejoin:round;stroke-miterlimit:10;" d="
				M190.168,218.115c0,0,4.86,4.846,14.092,4.846c6.204,0,7.32-5.852,7.32-5.852"/>
			<g>
				<path style="fill:#263238;" d="M189.652,182.014c0,0,3.785,3.524,13.141,1.697c5.917-1.155,14.871-8.326,10.102-15.504
					c-2.429-3.657-10.913-4.246-17.416-1.252c-6.503,2.992-10.957,11.865-10.957,11.865s-8.732,0.634-10.813,10.213
					c-1.641,7.555,1.461,13.378,4.915,14.223c3.456,0.845,8.832-4.354,10.461-9.732
					C190.727,188.109,189.652,182.014,189.652,182.014z"/>
				<path style="fill:none;stroke:#263238;stroke-width:2;stroke-linecap:round;stroke-linejoin:round;stroke-miterlimit:10;" d="
					M180.75,172.02l5.809,7.831"/>
				<path style="fill:none;stroke:#263238;stroke-width:2;stroke-linecap:round;stroke-linejoin:round;stroke-miterlimit:10;" d="
					M176.88,175.553l8.189,3.4"/>
				<g>
					<path style="fill:#263238;" d="M199.377,188.571c-0.945-0.069-1.771,0.619-1.831,1.566c-0.06,0.947,0.67,1.785,1.614,1.854
						c0.944,0.07,1.737-0.657,1.797-1.604C201.017,189.441,200.321,188.642,199.377,188.571z"/>
					<path style="fill:#263238;" d="M208.601,186.087c-0.944-0.07-1.77,0.618-1.83,1.565c-0.06,0.947,0.669,1.785,1.614,1.855
						c0.944,0.069,1.737-0.657,1.796-1.604C210.241,186.956,209.545,186.157,208.601,186.087z"/>
					<path style="fill:none;stroke:#263238;stroke-width:2;stroke-linecap:round;stroke-linejoin:round;stroke-miterlimit:10;" d="
						M211.42,201.48c4.112-8.195,0.851-18.232-7.285-22.42c-8.135-4.188-18.065-0.939-22.177,7.255
						c-4.113,8.195-0.852,18.232,7.284,22.419C197.378,212.923,207.308,209.674,211.42,201.48z"/>
					<path style="fill:#FF367C;" d="M194.873,195.061c-0.555-0.779-0.379-1.855,0.391-2.405c0.771-0.549,1.845-0.362,2.4,0.416
						c0.555,0.779,0.38,1.855-0.39,2.404C196.503,196.026,195.428,195.84,194.873,195.061z"/>
					<path style="fill:none;stroke:#263238;stroke-width:2;stroke-linecap:round;stroke-linejoin:round;stroke-miterlimit:10;" d="
						M199.894,196.52c0,0,0.791,1.34,2.333,1.852c1.706,0.568,3.029-0.115,3.029-0.115"/>
					<path style="fill:none;stroke:#263238;stroke-width:2;stroke-linecap:round;stroke-linejoin:round;stroke-miterlimit:10;" d="
						M203.856,189.141l3.742,5.222l-3.212,0.169"/>
				</g>
			</g>
			<g id="Layer-37_00000034077953185502806750000000086871329236432007_">
				<path style="fill:#FF367C;" d="M155.977,296.203c0,0-21.352,34.393-0.23,45.148c10.315,5.252,63.1,10.544,63.1,10.544
					l37.327,98.985l60.925-19.66c0,0-41.42-99.648-48.481-106.302c-12.708-11.977-70.873-29.338-70.873-29.338L155.977,296.203z"/>
			</g>
			<g id="Layer-36_00000154421781001111802360000016596347272477859482_">
				<path style="opacity:0.3043;fill:#FFFFFF;enable-background:new    ;" d="M194.884,295.617l-2.002,0.031v0.783h-10.981v-0.595
					l-2.002,0.031v0.564h-10.981v-0.408l-2.002,0.031v0.376h-10.949v-0.219c0,0-1.111,2.049-2.002,3.691v9.479h-4.224
					c-0.241,0.65-0.46,1.327-0.688,2.002h4.911v10.981h-7.414c-0.058,0.672-0.048,1.336-0.063,2.002h7.477v10.98h-4.818
					c0.436,0.699,0.941,1.364,1.502,2.002h3.317v2.847c0.591,0.391,1.107,0.814,1.783,1.157c0.049,0.025,0.168,0.038,0.219,0.063
					v-4.068h10.949v7.196c0.696,0.148,1.269,0.292,2.002,0.438v-7.634h10.981v9.448c0.676,0.108,1.319,0.207,2.002,0.312v-9.761
					h10.981v10.95h-3.473c8.16,1.138,10.542,1.376,16.112,2.002h0.312v0.031c0.708,0.08,1.38,0.182,2.002,0.25v-0.281h10.981v1.596
					h0.031l1.971,5.224v-6.819h10.981v10.981h-9.416l0.751,2.002h8.665v10.981h-4.505l0.751,2.002h3.754v9.979l2.002,5.319v-2.347
					h10.949V400.2h-7.695l0.751,2.002h6.945v10.98h-2.784l0.751,2.002h2.033v5.413l2.002,5.318v-10.731h10.981v10.95h-10.887
					l0.751,2.002h10.136v10.981h-6.007l0.751,2.002h5.256v9.26l2.002-0.658v-8.602h10.981v5.068l2.002-0.657v-4.411h10.949v0.907
					l2.002-0.657v-0.25h0.783l6.194-2.002h-6.977v-10.981h10.981v9.698l2.002-0.658v-9.041h10.981v5.506l2.002-0.657v-4.849h4.16
					c-0.049-0.117-0.797-1.813-0.876-2.002h-3.285v-7.727c-0.478-1.14-1.586-3.711-2.221-5.225h-10.762v-10.98h6.07
					c-0.345-0.814-0.486-1.155-0.845-2.002h-5.225v-10.981h0.532c-1.249-2.903-1.23-2.943-2.534-5.944v3.941H285.67v-10.949h7.884
					c-0.312-0.713-0.594-1.291-0.907-2.002h-6.977v-10.981h2.034c-0.308-0.686-0.603-1.325-0.908-2.002h-1.126v-2.534
					c-0.669-1.476-1.349-3.021-2.002-4.443v6.977h-10.949v-10.981h9.135c-0.285-0.615-0.627-1.402-0.907-2.002h-8.228v-10.95h2.972
					c-0.331-0.662-0.687-1.384-1.001-2.002h-1.971v-3.941c-0.883-1.641-1.322-2.075-2.002-3.159v7.101h-10.981v-10.98h8.071
					c-0.741-0.64-1.845-1.339-2.815-2.002h-5.256v-3.254c-0.625-0.338-1.34-0.692-2.002-1.033v4.287h-10.981v-9.385
					c-0.668-0.284-1.322-0.563-2.002-0.845v10.23h-10.949v-10.981h9.166c-1.665-0.678-3.275-1.341-4.975-2.002h-4.191v-1.596
					c-0.669-0.251-1.336-0.504-2.002-0.751v2.346h-10.981v-6.194c-0.71-0.245-1.31-0.453-2.002-0.689v6.883h-10.981v-10.605
					c-4.343-1.4-5.939-1.898-7.414-2.346h-5.537V295.617z M155.967,298.433h10.949v10.949h-10.949V298.433z M168.918,298.433h10.981
					v10.949h-10.981V298.433z M181.901,298.433h10.981v10.949h-10.981V298.433z M194.884,298.433h10.949v10.949h-10.949V298.433z
					 M155.967,311.384h10.949v10.981h-10.949V311.384z M168.918,311.384h10.981v10.981h-10.981V311.384z M181.901,311.384h10.981
					v10.981h-10.981V311.384z M194.884,311.384h10.949v10.981h-10.949V311.384z M207.835,311.384h10.981v10.981h-10.981V311.384z
					 M220.818,311.384h10.981v10.981h-10.981V311.384z M155.967,324.367h10.949v10.98h-10.949V324.367z M168.918,324.367h10.981
					v10.98h-10.981V324.367z M181.901,324.367h10.981v10.98h-10.981V324.367z M194.884,324.367h10.949v10.98h-10.949V324.367z
					 M207.835,324.367h10.981v10.98h-10.981V324.367z M220.818,324.367h10.981v10.98h-10.981V324.367z M233.802,324.367h10.949
					v10.98h-10.949V324.367z M246.753,324.367h10.981v10.98h-10.981V324.367z M194.884,337.349h10.949v10.95h-10.949V337.349z
					 M207.835,337.349h10.981v10.95h-10.981V337.349z M220.818,337.349h10.981v10.95h-10.981V337.349z M233.802,337.349h10.949
					v10.95h-10.949V337.349z M246.753,337.349h10.981v10.95h-10.981V337.349z M259.736,337.349h10.981v10.95h-10.981V337.349z
					 M233.802,350.302h10.949v10.981h-10.949V350.302z M246.753,350.302h10.981v10.981h-10.981V350.302z M259.736,350.302h10.981
					v10.981h-10.981V350.302z M233.802,363.285h10.949v10.981h-10.949V363.285z M246.753,363.285h10.981v10.981h-10.981V363.285z
					 M259.736,363.285h10.981v10.981h-10.981V363.285z M272.719,363.285h10.949v10.981h-10.949V363.285z M233.802,376.268h10.949
					v10.949h-10.949V376.268z M246.753,376.268h10.981v10.949h-10.981V376.268z M259.736,376.268h10.981v10.949h-10.981V376.268z
					 M272.719,376.268h10.949v10.949h-10.949V376.268z M246.753,389.219h10.981V400.2h-10.981V389.219z M259.736,389.219h10.981
					V400.2h-10.981V389.219z M272.719,389.219h10.949V400.2h-10.949V389.219z M285.67,389.219h10.981V400.2H285.67V389.219z
					 M246.753,402.202h10.981v10.98h-10.981V402.202z M259.736,402.202h10.981v10.98h-10.981V402.202z M272.719,402.202h10.949
					v10.98h-10.949V402.202z M285.67,402.202h10.981v10.98H285.67V402.202z M259.736,415.184h10.981v10.95h-10.981V415.184z
					 M272.719,415.184h10.949v10.95h-10.949V415.184z M285.67,415.184h10.981v10.95H285.67V415.184z M298.653,415.184h10.981v10.95
					h-10.981V415.184z M259.736,428.136h10.981v10.981h-10.981V428.136z M272.719,428.136h10.949v10.981h-10.949V428.136z"/>
			</g>
			<g id="Layer-21_00000171712588939970713720000004651024876768245158_">
				<path style="fill:#FFC051;" d="M118.268,283.998c0,0,51.587,7.522,70.277,12.395c6.861,1.789,10.984,2.893,10.984,16.121
					c0,13.352-1.448,64.675-1.448,64.675l-79.813-4.883V283.998z"/>
			</g>
			<g id="Layer-21_00000021812548193499651060000016995136387517376949_">
				<path style="fill:none;stroke:#263238;stroke-width:2;stroke-linecap:round;stroke-linejoin:round;stroke-miterlimit:10;" d="
					M126.072,284.672c-8.494-1.395-18.872-3.053-18.872-3.053"/>
				<path style="fill:none;stroke:#263238;stroke-width:2;stroke-linecap:round;stroke-linejoin:round;stroke-miterlimit:10;" d="
					M198.462,363.147c0.36-13.608,0.867-33.812,1.02-45.186"/>
			</g>
			<path style="fill:#FFFFFF;" d="M151.736,269.684c0,0,25.525,2.507,27.352,13.468c1.826,10.96-0.269,28.959-14.427,30.1
				c-14.157,1.142-47.178,1.253-42.881-27.647C123.319,266.489,151.736,269.684,151.736,269.684z"/>
			<path style="fill:none;stroke:#263238;stroke-width:2;stroke-linecap:round;stroke-linejoin:round;stroke-miterlimit:10;" d="
				M293.251,300.799c0,0,10.745,16.221,19.733,17.154c2.538,0.263,2.958-3.634,1.516-6.035c-1.989-3.311-6.721-7.862-3.163-9.325
				c3.558-1.464,16.999,8.922,20.497,5.427c3.091-3.087-13.264-11.538-13.264-11.538s5.203,2.347,8.346,4.474
				c3.415,2.312,4.317,2.953,4.317,2.953s5.498-3.506-1.974-8.705c-7.472-5.199-9.609-4.706-9.609-4.706s2.988,0.393,6.885,2.887
				c4.966,3.18,6.096,4.911,6.096,4.911s3.186-5.81-5.288-11.256c-15.187-9.759-27.717-5-27.717-5"/>
			<g id="Layer-31_00000134222111477751143800000003503784096327127982_">
				<path style="fill:none;stroke:#263238;stroke-width:2;stroke-linecap:round;stroke-linejoin:round;stroke-miterlimit:10;" d="
					M149.923,275.75c0,0,21.055-1.302,26.384,4.173c3.859,3.965,4.172,11.577,4.172,11.577"/>
				<path style="fill:none;stroke:#263238;stroke-width:2;stroke-linecap:round;stroke-linejoin:round;stroke-miterlimit:10;" d="
					M166.973,251.791c0,0-3.023,6.652-4.089,11.517c-1.064,4.865-2.365,12.534-2.365,12.534"/>
			</g>
			<g id="Layer-29_00000046311498112439023990000014556378120223145092_">
				<path style="fill:none;stroke:#263238;stroke-width:2;stroke-linecap:round;stroke-linejoin:round;stroke-miterlimit:10;" d="
					M168.254,288.117c0,0,21.469-8.695,32.422,9.108c4.428,7.198-0.43,10.509-0.43,10.509s-0.935-3.162-3.264-6.784
					c-2.329-3.621-7.506-6.753-7.506-6.753s6.384,4.643,7.695,6.968c1.312,2.324,5.311,8.393,1.78,10.456
					c-2.429,1.418-4.384-3.751-6.671-5.949s-6.223-5.125-6.223-5.125s2.118,2.414,5.471,6.767c3.203,4.16,2.221,6.96,0.405,7.75
					c-1.795,0.78-10.779-9.446-10.779-9.446s-11.871,4.115-17.409-4.83"/>
			</g>
		</g>
	</g>
</g>
</svg>
