<svg xmlns="http://www.w3.org/2000/svg" data-name="Layer 1" viewBox="0 0 512 512" id="actress"><path fill="#343c4a" d="M256 3.499a103.762 103.762 0 0 1 103.762 103.762v178.121a33.029 33.029 0 0 1-33.029 33.03H185.267a33.029 33.029 0 0 1-33.03-33.03v-178.12A103.762 103.762 0 0 1 256 3.498Z"></path><path fill="#f9beac" d="M454.56 501.999V397.302a60 60 0 0 0-33.656-53.907l-102.824-50.25a20 20 0 0 1-11.219-17.968v-34.039H205.14v34.039a20 20 0 0 1-11.219 17.969l-102.824 50.25a60 60 0 0 0-33.656 53.906V502a10 10 0 0 0 10 10h377.12a10 10 0 0 0 10-10Z"></path><path fill="#e58a7b" d="M205.139 241.138v28.001A80.114 80.114 0 0 0 263 293.76a79.987 79.987 0 0 0 44.536-13.469 19.965 19.965 0 0 1-.675-5.113v-34.039Z"></path><path fill="#f9beac" d="M175.628 196.543V133.61a7.007 7.007 0 0 1 7.135-6.998 199.072 199.072 0 0 0 60.513-8.41 198.847 198.847 0 0 0 48.613-22.145 5.985 5.985 0 0 1 8.074 1.638 81.385 81.385 0 0 0 32.344 26.926 6.996 6.996 0 0 1 4.065 6.353v65.569A80.372 80.372 0 0 1 256 276.915a80.372 80.372 0 0 1-80.372-80.372Z"></path><path fill="#e58a7b" d="M256.001 241.625a36.932 36.932 0 0 1-15.72-3.536 3.5 3.5 0 0 1 2.998-6.326A29.894 29.894 0 0 0 256 234.625h.09a29.9 29.9 0 0 0 12.63-2.862 3.5 3.5 0 1 1 2.997 6.326 36.948 36.948 0 0 1-15.607 3.536zm12.703-44.776v5.733a12.701 12.701 0 0 1-12.7 12.7h-.007a12.701 12.701 0 0 1-12.701-12.7v-5.733a3 3 0 0 1 3-3h19.408a3 3 0 0 1 3 3zm67.668-4.428v-41.05h16.39a7 7 0 0 1 7 7v10.66a23.39 23.39 0 0 1-23.39 23.39zM175.628 192.421a23.39 23.39 0 0 1-23.39-23.39v-10.66a7 7 0 0 1 7-7h16.39v41.05Z"></path><path fill="#343c4a" d="M279.187 154.46a3.5 3.5 0 0 1-1.33-6.74 34.203 34.203 0 0 1 26.017 0 3.5 3.5 0 0 1-2.656 6.477 27.44 27.44 0 0 0-11.043-2.038 27.147 27.147 0 0 0-9.66 2.038 3.506 3.506 0 0 1-1.328.263zm11.68 17.707a3.5 3.5 0 0 1-3.5-3.5v-7.434a3.5 3.5 0 1 1 7 0v7.434a3.5 3.5 0 0 1-3.5 3.5zm-58.054-17.707a3.499 3.499 0 0 1-1.327-.263 27.206 27.206 0 0 0-20.703 0 3.5 3.5 0 1 1-2.658-6.475 34.144 34.144 0 0 1 12.141-2.56 34.644 34.644 0 0 1 13.877 2.559 3.5 3.5 0 0 1-1.33 6.739zm-11.68 17.707a3.5 3.5 0 0 1-3.5-3.5v-7.434a3.5 3.5 0 0 1 7 0v7.434a3.5 3.5 0 0 1-3.5 3.5z"></path><path fill="#f2f2f2" d="M256 336.479a3.5 3.5 0 0 1-3.5-3.5v-20.48a3.5 3.5 0 0 1 7 0v20.48a3.5 3.5 0 0 1-3.5 3.5Z"></path><path fill="#f96263" d="M266.162 339.384c0 4.187-5.654 12.73-8.527 16.8a1.998 1.998 0 0 1-3.27 0c-2.873-4.07-8.527-12.613-8.527-16.8a10.162 10.162 0 0 1 20.324 0Z"></path><path fill="#f2f2f2" d="M298 322.48a3.5 3.5 0 0 1-3.5-3.5v-18.03a3.5 3.5 0 1 1 7 0v18.03a3.5 3.5 0 0 1-3.5 3.5Z"></path><path fill="#f96263" d="M308.162 325.384c0 4.187-5.654 12.73-8.527 16.8a1.998 1.998 0 0 1-3.27 0c-2.873-4.07-8.527-12.613-8.527-16.8a10.162 10.162 0 0 1 20.324 0Z"></path><path fill="#f2f2f2" d="M214 322.48a3.5 3.5 0 0 1-3.5-3.5v-17.99a3.5 3.5 0 0 1 7 0v17.99a3.5 3.5 0 0 1-3.5 3.5Z"></path><path fill="#f96263" d="M224.162 325.384c0 4.187-5.654 12.73-8.527 16.8a1.998 1.998 0 0 1-3.27 0c-2.873-4.07-8.527-12.613-8.527-16.8a10.162 10.162 0 0 1 20.324 0Z"></path><path fill="#f9f7f8" d="M196.472 292.312a89.677 89.677 0 0 0 34.971 20.08 85.38 85.38 0 0 0 49.112 0 88.894 88.894 0 0 0 34.901-20.172 3.448 3.448 0 0 0 .341-.389 19.981 19.981 0 0 1-5.033-4.793c-.025.023-.055.037-.08.06a81.872 81.872 0 0 1-32.13 18.587 78.392 78.392 0 0 1-45.115-.002 82.647 82.647 0 0 1-32.22-18.516c-.016-.015-.036-.025-.053-.04a19.968 19.968 0 0 1-5.064 4.767 3.493 3.493 0 0 0 .37.418Z"></path><path fill="#f96263" d="M256 508.499V475.64a80.882 80.882 0 0 1 80.882-80.881 31.22 31.22 0 0 0 31.219-31.22v-42.403a5.055 5.055 0 0 1 6.808-4.742l20.465 7.566a5.055 5.055 0 0 1 3.302 4.741v52.039a81.376 81.376 0 0 0 3.94 25.01l2.044 6.332a131.85 131.85 0 0 1-4.404 92.756l-1.58 3.661-1.637 3.5H256ZM256 508.499V475.64a80.882 80.882 0 0 0-80.882-80.881 31.22 31.22 0 0 1-31.219-31.22v-42.403a5.055 5.055 0 0 0-6.808-4.742l-20.465 7.566a5.055 5.055 0 0 0-3.302 4.741v52.039a81.373 81.373 0 0 1-3.94 25.01l-2.044 6.331a131.85 131.85 0 0 0 4.404 92.757l1.58 3.661 1.874 3.5H256Z"></path></svg>