<svg xmlns="http://www.w3.org/2000/svg" viewBox="0 0 512 512" id="avatar"><g data-name="Layer 16"><path fill="#16a085" d="m90.766 247.723-8.428 77.111 11.389-11.46 8.351 44.439 30.877-33.777-20.651-76.313H90.766zM420.475 247.723l8.429 77.111-11.389-11.46-8.352 44.439-30.877-33.777 20.652-76.313h21.537z"></path><path fill="#f4dcc6" d="M194.963 156.646h122.069a80.669 80.669 0 0 1 80.668 80.669v61.035A141.7 141.7 0 0 1 256 440.053a141.7 141.7 0 0 1-141.7-141.7v-61.038a80.669 80.669 0 0 1 80.669-80.669Z"></path><path fill="#c99673" d="M256 429.744a141.7 141.7 0 0 1-141.7-141.7v10.306A141.7 141.7 0 0 0 256 440.053a141.7 141.7 0 0 0 141.7-141.7v-10.312A141.7 141.7 0 0 1 256 429.744Z"></path><path fill="#c99673" d="M397.7 237.314a80.668 80.668 0 0 0-80.668-80.668H194.964a80.67 80.67 0 0 0-80.67 80.67v2.091h141.967l17.5 58.942v-49.431a9.511 9.511 0 0 1 9.51-9.511H397.7Z"></path><circle cx="180.912" cy="274.712" r="45.967" fill="#ecf0f1"></circle><path fill="#bdc3c7" d="M180.912 228.745a45.967 45.967 0 0 0-45.967 45.967h91.934a45.967 45.967 0 0 0-45.967-45.967Z"></path><ellipse cx="180.912" cy="274.712" fill="#414141" rx="20.388" ry="22.983"></ellipse><ellipse cx="180.912" cy="274.712" fill="#ecf0f1" rx="10.276" ry="11.584"></ellipse><circle cx="331.083" cy="274.712" r="45.967" fill="#ecf0f1"></circle><path fill="#bdc3c7" d="M331.083 228.745a45.967 45.967 0 0 0-45.967 45.967h91.934a45.967 45.967 0 0 0-45.967-45.967Z"></path><ellipse cx="331.083" cy="274.712" fill="#414141" rx="20.388" ry="22.983"></ellipse><ellipse cx="331.083" cy="274.712" fill="#ecf0f1" rx="10.276" ry="11.584"></ellipse><circle cx="167.639" cy="274.712" r="6.673" fill="#ecf0f1"></circle><circle cx="317.81" cy="274.712" r="6.673" fill="#ecf0f1"></circle><path fill="#c99673" d="m260.9 338.826 15.816-17.974a6.524 6.524 0 0 0-4.9-10.833h-31.632a6.524 6.524 0 0 0-4.9 10.833l15.816 17.974a6.524 6.524 0 0 0 9.8 0Z"></path><path fill="#414141" d="M226.879 279.125a4.413 4.413 0 0 1-4.413-4.413 41.554 41.554 0 0 0-83.108 0 4.413 4.413 0 0 1-8.826 0 50.38 50.38 0 0 1 100.76 0 4.413 4.413 0 0 1-4.413 4.413zm150.171 0a4.413 4.413 0 0 1-4.413-4.413 41.554 41.554 0 0 0-83.108 0 4.413 4.413 0 0 1-8.826 0 50.38 50.38 0 0 1 100.76 0 4.413 4.413 0 0 1-4.413 4.413z"></path><ellipse cx="314.758" cy="200.291" fill="#16a085" rx="31.579" ry="10.629" transform="rotate(-11.107 314.767 200.298)"></ellipse><ellipse cx="196.697" cy="200.291" fill="#16a085" rx="10.629" ry="31.579" transform="rotate(-78.893 196.695 200.29)"></ellipse><ellipse cx="256" cy="402.435" fill="#c99673" rx="13.666" ry="9.68"></ellipse><path fill="#1abc9c" d="M253.589 36.564c-99.72 1.294-179.05 84.422-179.05 184.151v77.634l21.747-39.937 8.063 39.937 3.859-6.978a74.554 74.554 0 0 0 10.432 13.164c10.981 10.843 24.294 14.468 32.391 15.808a88.216 88.216 0 0 1-22.213-33.207 98.763 98.763 0 0 1-5.218-23.6l25.173-45.525 29.508-46.969a281.355 281.355 0 0 0 95.477 127.31s-10.067-54.526-12.906-83.974a518.814 518.814 0 0 1-.9-10.63 137.17 137.17 0 0 0 50.742 25 245.07 245.07 0 0 1-19.058-43.9c-1.159-3.6-2.18-7.1-3.121-10.547a323.164 323.164 0 0 1 99.888 89.19 98.682 98.682 0 0 1-5.222 23.643 88.216 88.216 0 0 1-22.213 33.207c8.1-1.34 21.41-4.965 32.391-15.808a72.758 72.758 0 0 0 11.915-15.7q2.817 4.705 5.48 9.515l6.122-37.09 20.584 37.09v-80.34A181.461 181.461 0 0 0 253.589 36.564Z"></path><path fill="#25e5c0" d="M424.5 150.671a180.986 180.986 0 0 0-17.824-33.771c-35.489 28.948-89.791 47.474-150.68 47.474-60.523 0-114.531-18.31-150.031-46.959a185.58 185.58 0 0 0-17.942 33.855c17.31 19.86 42.484 36.351 72.748 47.638l17.51-27.872a283.239 283.239 0 0 0 17.542 38.064A286.288 286.288 0 0 0 256 215.417c1.663 0 3.3-.056 4.954-.083-.032-.317-.068-.647-.1-.959a518.814 518.814 0 0 1-.9-10.63 138.247 138.247 0 0 0 16.315 10.974c8.807-.6 17.428-1.618 25.843-2.973a244.325 244.325 0 0 1-10.474-26.9c-1.159-3.6-2.18-7.1-3.121-10.547a322.866 322.866 0 0 1 44.383 30.638c38.757-11.064 70.914-30.237 91.6-54.266Z"></path><path fill="#414141" d="M296.426 381.434a4.4 4.4 0 0 1-2.123-.547 38.346 38.346 0 0 0-15.433-4.787 25.958 25.958 0 0 0-10.95 1.383 40.487 40.487 0 0 1-13.576 2.046 45.79 45.79 0 0 1-13.691-2.376c-3.677-1.114-6.333-1.918-10.914-1.2a29.1 29.1 0 0 0-11.71 4.726 4.413 4.413 0 1 1-4.917-7.33 37.866 37.866 0 0 1 15.257-6.116c6.576-1.029 10.778.24 14.842 1.47a37.11 37.11 0 0 0 11.275 2 32.067 32.067 0 0 0 10.947-1.689 34.49 34.49 0 0 1 14.146-1.713 47.1 47.1 0 0 1 18.977 5.848 4.414 4.414 0 0 1-2.13 8.281Z"></path></g></svg>